<svg width="408" height="469" viewBox="0 0 408 469" fill="none" xmlns="http://www.w3.org/2000/svg">
<path d="M83.9365 499.309C82.2503 499.309 80.805 498.106 80.3233 496.663C78.878 491.371 88.2724 452.403 119.587 400.687C147.77 354.263 201.245 285.949 295.43 225.573C297.116 224.611 299.284 225.092 300.488 226.776C301.452 228.46 300.97 230.625 299.284 231.827C207.267 291 154.755 357.39 126.813 402.611C94.2944 455.771 87.0679 491.852 87.0679 495.219C87.5497 497.144 86.3453 498.828 84.4182 499.309C84.6591 499.309 84.1774 499.309 83.9365 499.309Z" fill="url(#paint0_linear_22_25257)"/>
<path d="M101.521 499.309C101.039 499.309 100.557 499.309 100.075 499.068C98.1484 498.347 97.4258 496.182 98.1484 494.258C180.77 290.76 173.785 76.6792 173.544 74.7549C173.544 72.8306 174.989 71.1468 176.916 70.9062C178.843 70.9062 180.53 72.3495 180.77 74.2738C180.77 76.4387 187.997 291.963 104.893 496.904C104.17 498.347 102.966 499.309 101.521 499.309Z" fill="url(#paint1_linear_22_25257)"/>
<path d="M174.267 42.7627C174.267 42.7627 172.581 1.14919 177.88 0.668109C183.179 0.187028 181.975 42.7627 181.975 42.7627H174.267Z" fill="url(#paint2_linear_22_25257)"/>
<path d="M370.585 179.63C370.585 179.63 404.308 155.336 407.68 159.665C411.053 163.755 374.68 186.125 374.68 186.125L370.585 179.63Z" fill="url(#paint3_linear_22_25257)"/>
<path d="M178.603 33.6221C178.843 33.6221 179.325 33.6221 179.566 33.6221C193.055 33.3816 204.136 44.2059 204.618 57.6761C205.099 78.6032 205.581 111.317 202.931 141.625C201.968 154.133 191.851 163.755 179.325 164.236C177.88 164.236 176.435 164.236 174.989 164.236C161.259 164.236 150.179 152.449 150.66 138.738C151.383 117.33 152.587 84.1356 154.755 56.4734C155.478 43.9653 165.836 33.8626 178.603 33.6221Z" fill="url(#paint4_linear_22_25257)"/>
<path d="M380.46 178.188C380.701 178.428 380.942 178.669 380.942 178.909C388.409 190.215 385.518 205.369 374.438 213.066C357.335 225.093 330.116 243.134 303.137 257.566C292.057 263.58 278.327 260.453 271.1 250.35C270.378 249.147 269.414 247.944 268.691 246.742C261.224 235.196 264.837 219.561 276.64 212.344C294.947 201.28 323.371 183.961 347.7 170.731C359.503 164.717 373.474 167.844 380.46 178.188Z" fill="url(#paint5_linear_22_25257)"/>
<path d="M76.2285 495.701C76.2285 495.701 69.243 392.268 3.96436 341.033C3.96436 341.033 60.0895 403.814 66.1115 495.701H76.2285Z" fill="url(#paint6_linear_22_25257)"/>
<path d="M150.42 495.701C150.42 495.701 246.049 356.187 407.921 314.814C407.921 314.814 239.064 379.039 161.5 495.701H150.42Z" fill="url(#paint7_linear_22_25257)"/>
<path d="M92.3674 495.701C92.3674 495.701 100.076 338.869 0.351074 214.269C0.351074 214.269 102.003 283.544 101.521 501.955L92.3674 495.701Z" fill="url(#paint8_linear_22_25257)"/>
<path d="M120.791 495.701C120.791 495.701 149.938 352.579 291.094 277.29C291.094 277.29 162.945 359.074 131.39 495.701H120.791Z" fill="url(#paint9_linear_22_25257)"/>
<defs>
<linearGradient id="paint0_linear_22_25257" x1="80.3418" y1="362.038" x2="301.253" y2="362.038" gradientUnits="userSpaceOnUse">
<stop stop-color="#1C332F"/>
<stop offset="1" stop-color="#284A44"/>
</linearGradient>
<linearGradient id="paint1_linear_22_25257" x1="97.8317" y1="285.077" x2="180.969" y2="285.077" gradientUnits="userSpaceOnUse">
<stop stop-color="#1C332F"/>
<stop offset="1" stop-color="#284A44"/>
</linearGradient>
<linearGradient id="paint2_linear_22_25257" x1="173.903" y1="21.6772" x2="182.022" y2="21.6772" gradientUnits="userSpaceOnUse">
<stop stop-color="#1C332F"/>
<stop offset="1" stop-color="#284A44"/>
</linearGradient>
<linearGradient id="paint3_linear_22_25257" x1="370.624" y1="172.567" x2="407.958" y2="172.567" gradientUnits="userSpaceOnUse">
<stop stop-color="#1C332F"/>
<stop offset="1" stop-color="#284A44"/>
</linearGradient>
<linearGradient id="paint4_linear_22_25257" x1="150.466" y1="98.9474" x2="204.96" y2="98.9474" gradientUnits="userSpaceOnUse">
<stop stop-color="#284A44"/>
<stop offset="0.9901" stop-color="#36775C"/>
</linearGradient>
<linearGradient id="paint5_linear_22_25257" x1="265.239" y1="214.162" x2="385.323" y2="214.162" gradientUnits="userSpaceOnUse">
<stop stop-color="#284A44"/>
<stop offset="0.9901" stop-color="#36775C"/>
</linearGradient>
<linearGradient id="paint6_linear_22_25257" x1="54.9629" y1="413.602" x2="383.779" y2="309.275" gradientUnits="userSpaceOnUse">
<stop stop-color="#1C332F"/>
<stop offset="1" stop-color="#284A44"/>
</linearGradient>
<linearGradient id="paint7_linear_22_25257" x1="73.4191" y1="471.772" x2="402.237" y2="367.445" gradientUnits="userSpaceOnUse">
<stop stop-color="#1C332F"/>
<stop offset="1" stop-color="#284A44"/>
</linearGradient>
<linearGradient id="paint8_linear_22_25257" x1="38.56" y1="361.903" x2="367.377" y2="257.576" gradientUnits="userSpaceOnUse">
<stop stop-color="#1C332F"/>
<stop offset="1" stop-color="#284A44"/>
</linearGradient>
<linearGradient id="paint9_linear_22_25257" x1="61.4053" y1="433.907" x2="390.223" y2="329.58" gradientUnits="userSpaceOnUse">
<stop stop-color="#1C332F"/>
<stop offset="1" stop-color="#284A44"/>
</linearGradient>
</defs>
</svg>
