<svg width="454" height="124" viewBox="0 0 454 124" fill="none" xmlns="http://www.w3.org/2000/svg">
<path d="M152.838 99.1197C152.704 100.457 152.236 101.494 151.434 102.23C150.631 103.032 149.595 103.434 148.325 103.434C147.656 103.434 147.021 103.333 146.419 103.133C145.149 104.136 143.645 104.905 141.906 105.44C140.168 105.975 138.53 106.51 136.992 107.045C135.12 106.978 133.282 106.811 131.476 106.544C129.671 106.276 127.799 106.209 125.86 106.343C125.192 105.875 124.49 105.574 123.754 105.44C123.019 105.306 122.25 105.206 121.448 105.139C120.712 105.139 119.977 105.039 119.241 104.838C118.573 104.638 117.904 104.169 117.236 103.434H112.221C111.753 103.434 111.051 103.2 110.115 102.731C109.246 102.33 108.243 101.895 107.107 101.427C106.037 100.959 104.867 100.524 103.597 100.123C102.393 99.7217 101.257 99.521 100.187 99.521H99.5852C98.8497 98.9191 97.9806 98.4509 96.9777 98.1165C96.0417 97.849 95.0722 97.5814 94.0694 97.3139C93.0665 97.1133 92.097 96.8792 91.161 96.6116C90.225 96.3441 89.4227 95.9763 88.7541 95.5081C88.0856 95.0399 87.3167 94.5717 86.4475 94.1036C85.5784 93.5685 84.6758 93.3344 83.7398 93.4013C82.4695 92.6656 81.1323 92.0302 79.7283 91.4951C78.3911 90.9601 77.0205 90.4585 75.6165 89.9903L71.5048 88.4854C70.1676 87.9504 68.8304 87.315 67.4933 86.5793C67.2927 86.6462 67.0587 86.6462 66.7913 86.5793C66.5238 86.5124 66.2898 86.479 66.0892 86.479C65.6881 86.479 65.4541 86.6127 65.3872 86.8803C64.9192 86.4121 64.3844 86.0108 63.7826 85.6764C63.2478 85.342 62.7129 84.9407 62.178 84.4725C61.9106 84.5394 61.6432 84.6063 61.3757 84.6731C61.1752 84.6731 60.9077 84.6731 60.5734 84.6731C59.9717 84.6731 59.37 84.6063 58.7683 84.4725C58.2334 84.3387 57.6986 84.1715 57.1637 83.9709C56.562 85.3085 56.1608 86.8134 55.9602 88.4854C55.7597 90.1575 55.5925 91.8964 55.4588 93.7023C55.3919 95.4412 55.2917 97.1802 55.1579 98.9191C55.0242 100.725 54.7234 102.364 54.2554 103.835C54.3891 104.37 54.4559 104.905 54.4559 105.44V107.146C54.4559 108.283 54.6231 109.186 54.9574 109.854C54.8237 110.456 54.6899 111.025 54.5562 111.56C54.4894 112.095 54.3891 112.63 54.2554 113.165C54.3222 113.901 54.3556 114.57 54.3556 115.172C54.4225 115.84 54.4559 116.543 54.4559 117.278V118.984C54.4559 119.586 54.3891 120.188 54.2554 120.79C53.5868 121.191 52.9182 121.559 52.2496 121.893C51.581 122.295 50.9125 122.763 50.2439 123.298C49.7759 122.428 48.9736 121.927 47.837 121.793C47.5695 122.127 47.369 122.562 47.2353 123.097C47.1684 123.699 46.8675 124 46.3327 124C45.3967 123.264 44.6278 122.662 44.0261 122.194C43.4243 121.726 42.7558 121.024 42.0203 120.087C41.9535 119.954 41.92 119.786 41.92 119.586C41.92 119.251 41.9869 118.95 42.1206 118.683C42.2543 118.415 42.3212 118.148 42.3212 117.88C42.3212 117.078 42.2209 116.375 42.0203 115.773C41.8866 114.904 41.7863 114.035 41.7195 113.165C41.6526 112.362 41.6192 111.56 41.6192 110.757C41.6192 109.62 41.686 108.517 41.8197 107.447C42.0203 106.376 42.3546 105.273 42.8226 104.136C43.5581 102.196 44.0595 100.156 44.3269 98.0162C44.6612 95.8759 44.8952 93.7357 45.0289 91.5955C45.1627 89.3884 45.2295 87.1812 45.2295 84.9741C45.2964 82.767 45.4301 80.6602 45.6307 78.6537C45.1627 77.5836 44.5944 76.7476 43.9258 76.1456C43.3241 75.4768 43.0232 74.4401 43.0232 73.0356C43.0232 71.7648 43.4243 70.795 44.2266 70.1262C45.0289 69.3905 45.7309 68.521 46.3327 67.5178C46.199 67.1165 46.2992 66.849 46.6335 66.7152L47.837 56.1812C47.9038 55.4455 48.0041 54.6429 48.1378 53.7735C48.3384 52.904 48.4721 52.1014 48.539 51.3657C48.6727 49.8274 48.7396 48.3225 48.7396 46.8511C48.7396 45.3797 48.8064 43.9083 48.9401 42.4369C49.2744 39.1597 49.5753 35.9159 49.8427 32.7055C50.177 29.4951 50.3442 26.2848 50.3442 23.0744C50.3442 21.5361 50.2773 19.9978 50.1436 18.4595C50.0767 16.9213 49.8762 15.383 49.5419 13.8447C48.4053 14.1791 47.135 14.5469 45.7309 14.9482C44.3938 15.2826 43.2572 15.8846 42.3212 16.754H41.5189C39.7806 16.754 38.1426 17.0885 36.6048 17.7573C35.1339 18.4261 33.6296 19.0615 32.0919 19.6634C31.4233 19.9978 30.7547 20.2319 30.0862 20.3657C29.4176 20.4326 28.7156 20.5663 27.9801 20.767C27.6458 20.8339 27.2781 21.0345 26.877 21.3689C26.4758 21.7033 26.1081 21.9374 25.7738 22.0712L24.0689 22.4725C23.6009 22.6063 23.4003 22.9072 23.4672 23.3754C23.5341 23.8436 23.3669 24.1446 22.9658 24.2783C22.6315 24.6127 22.1635 24.7799 21.5617 24.7799C20.96 24.7131 20.492 24.6796 20.1577 24.6796H19.7566C18.0851 25.8835 16.4805 26.9202 14.9428 27.7896C13.3382 28.5922 11.4662 29.1273 9.32671 29.3948L7.12039 30.7994C6.38495 31.2675 5.54922 31.5016 4.61321 31.5016C3.87777 31.5016 3.27605 31.3679 2.80804 31.1003C2.27318 30.2977 1.87203 29.3948 1.60459 28.3916C1.2703 27.3883 0.735439 26.5189 0 25.7832C0.334291 25.4488 0.568294 25.014 0.70201 24.479C0.768868 23.877 0.869155 23.342 1.00287 22.8738C3.00862 22.0043 5.04779 21.1683 7.12039 20.3657C9.12613 19.5631 11.065 18.5933 12.937 17.4563C13.1376 17.5232 13.4385 17.5566 13.8396 17.5566C14.5082 17.5566 15.1099 17.4563 15.6448 17.2557C16.1797 17.055 16.7145 16.8209 17.2494 16.5534C17.7843 16.2859 18.3191 16.0518 18.854 15.8511C19.3889 15.6505 20.024 15.5836 20.7594 15.6505C23.0326 14.3797 25.4395 13.343 27.9801 12.5405C30.5207 11.7379 32.9276 10.6343 35.2008 9.22977C35.5351 9.22977 35.8025 9.29666 36.0031 9.43042C36.2705 9.56419 36.538 9.63107 36.8054 9.63107C37.0728 9.63107 37.24 9.59763 37.3068 9.53074C37.708 8.99568 38.2428 8.62783 38.9114 8.42718C39.58 8.15965 40.2486 7.95901 40.9172 7.82524C41.6526 7.6246 42.3212 7.39051 42.9229 7.12298C43.5915 6.78857 44.0261 6.28695 44.2266 5.61812C44.5609 5.88565 45.0624 6.01942 45.7309 6.01942C46.8675 6.01942 47.9038 5.78533 48.8399 5.31715C49.8427 4.84898 50.9125 4.61489 52.049 4.61489C52.3165 4.61489 52.5505 4.68177 52.751 4.81553C53.0185 4.88242 53.2859 4.91586 53.5533 4.91586C54.0882 4.91586 54.3556 4.74865 54.3556 4.41424C54.4225 4.07983 54.6231 3.77886 54.9574 3.51133C59.0357 2.77562 63.0806 2.1068 67.0921 1.50485C71.1705 0.902913 75.2822 0.601942 79.4274 0.601942C80.0292 0.200647 80.6977 0 81.4332 0C82.1686 0 82.8372 0.200647 83.4389 0.601942C84.5755 0.468177 85.7121 0.367853 86.8487 0.300971C87.9853 0.234088 89.1219 0.200647 90.2585 0.200647C92.8659 0.200647 95.5402 0.367853 98.2814 0.702265C101.023 1.03668 103.73 1.57174 106.405 2.30744C109.146 2.97627 111.753 3.91262 114.227 5.1165C116.701 6.25351 119.007 7.6246 121.147 9.22977C121.347 9.83172 121.615 10.4337 121.949 11.0356C122.283 11.6375 122.718 12.1057 123.253 12.4401C123.253 12.5739 123.219 12.6742 123.153 12.7411C123.153 12.808 123.153 12.9083 123.153 13.0421C123.153 13.7778 123.353 14.48 123.754 15.1489C124.222 15.8177 124.456 16.6203 124.456 17.5566C124.456 18.493 124.289 19.4293 123.955 20.3657C123.688 21.302 123.587 22.2384 123.654 23.1748C122.919 24.2449 122.283 25.2147 121.749 26.0841C121.281 26.9536 120.98 28.0572 120.846 29.3948C119.643 30.5987 118.573 31.9364 117.637 33.4078C116.701 34.8123 115.731 36.2168 114.729 37.6214C113.793 38.959 112.723 40.1963 111.519 41.3333C110.316 42.4703 108.878 43.3732 107.207 44.0421C107.14 44.7109 106.873 45.4466 106.405 46.2492H104.299C104.098 46.7843 103.764 47.1855 103.296 47.4531L101.892 48.2557C101.424 48.5232 101.023 48.8576 100.688 49.2589C100.421 49.6602 100.287 50.2287 100.287 50.9644C100.153 50.8975 99.9863 50.8641 99.7857 50.8641C99.1171 50.8641 98.3148 51.1985 97.3788 51.8673C96.5097 52.5361 95.8077 53.0712 95.2728 53.4725C94.1362 54.2751 92.9662 55.0108 91.7628 55.6796C90.6262 56.3484 89.6233 57.2848 88.7541 58.4887C86.0798 59.6257 83.5392 60.9633 81.1323 62.5016C78.7254 63.973 76.118 65.1435 73.3099 66.0129C72.2402 67.1499 70.9699 68.0529 69.499 68.7217C68.095 69.3236 66.7244 69.9924 65.3872 70.7282V71.0291C65.3872 71.5642 65.5878 72.0992 65.989 72.6343C66.3901 73.1025 66.8581 73.5372 67.393 73.9385C67.9278 74.2729 68.4961 74.507 69.0979 74.6408C69.7664 74.7745 70.3347 74.7745 70.8027 74.6408C72.1399 75.8447 73.6776 76.8145 75.4159 77.5502C77.1543 78.2859 78.9594 78.9547 80.8315 79.5566C82.7035 80.1586 84.5421 80.794 86.3473 81.4628C88.1524 82.1316 89.8239 82.9676 91.3616 83.9709H93.7685C95.3062 85.3085 97.1114 86.3118 99.184 86.9806C101.323 87.6494 103.363 88.2514 105.302 88.7864C106.104 89.5221 107.107 90.0906 108.31 90.4919C109.58 90.8263 110.784 90.9935 111.92 90.9935H112.522C112.79 90.9935 113.024 90.9601 113.224 90.8932V91.0938C113.224 91.4283 113.325 91.6624 113.525 91.7961C113.726 91.863 113.926 91.9299 114.127 91.9968C114.394 91.9968 114.628 92.0636 114.829 92.1974C115.096 92.2643 115.297 92.3981 115.431 92.5987H116.433C117.837 92.5987 119.175 92.8997 120.445 93.5016C121.715 94.0367 123.052 94.3042 124.456 94.3042C125.058 94.3042 125.526 94.2373 125.86 94.1036C126.262 94.2373 126.562 94.5049 126.763 94.9062C126.964 95.3074 127.231 95.6419 127.565 95.9094C128.033 95.8425 128.468 95.7756 128.869 95.7087C129.27 95.7087 129.671 95.7087 130.072 95.7087C131.543 95.7087 132.914 95.8759 134.184 96.2104C135.455 96.5448 136.758 97.0464 138.095 97.7152C140.235 96.7789 142.341 96.0097 144.414 95.4078C146.486 94.8058 148.692 94.5049 151.032 94.5049V94.7055C151.032 95.5081 151.233 96.2438 151.634 96.9126C152.102 97.6483 152.503 98.384 152.838 99.1197ZM114.428 19.0615C114.428 18.2589 114.261 17.6235 113.926 17.1553C113.659 16.6872 113.291 16.2859 112.823 15.9515C112.355 15.5502 111.854 15.1823 111.319 14.8479C110.851 14.5135 110.416 14.0787 110.015 13.5437C108.277 13.0086 106.572 12.4067 104.9 11.7379C103.229 11.069 101.524 10.5005 99.7857 10.0324C98.9166 9.83172 98.0474 9.66451 97.1783 9.53074C96.3091 9.3301 95.44 9.22977 94.5708 9.22977H92.3645C91.9633 9.16289 91.5288 9.09601 91.0607 9.02913C90.6596 8.89536 90.2585 8.79504 89.8573 8.72816C88.9213 8.59439 87.9853 8.49407 87.0493 8.42718C86.1801 8.3603 85.2775 8.32686 84.3415 8.32686C82.6032 8.32686 80.8649 8.39374 79.1266 8.52751L73.9116 8.9288C73.1762 8.99568 72.4073 9.02913 71.605 9.02913C70.8027 9.02913 70.0673 9.09601 69.3987 9.22977C69.0644 9.29666 68.5964 9.46386 67.9947 9.73139C67.393 9.93204 66.7578 10.1661 66.0892 10.4337C65.4207 10.6343 64.7521 10.8684 64.0835 11.1359C63.4818 11.4035 62.9469 11.6041 62.4789 11.7379C62.5458 12.206 62.5792 12.6742 62.5792 13.1424V14.4466C62.5792 15.4498 62.5458 16.4531 62.4789 17.4563C62.412 18.4595 62.2783 19.4628 62.0778 20.466C62.0109 20.8673 61.9106 21.2686 61.7769 21.6699C61.6432 22.0712 61.5429 22.4725 61.476 22.8738C61.3423 23.4757 61.2755 24.1446 61.2755 24.8803V26.7864C61.1417 28.3247 61.0415 29.8296 60.9746 31.301C60.9077 32.7724 60.8075 34.2772 60.6737 35.8155C60.2726 40.2298 59.838 44.6106 59.37 48.9579C58.9689 53.3053 58.7014 57.6861 58.5677 62.1003C60.774 61.6321 62.8801 60.9299 64.8858 59.9935C66.8915 59.0572 68.8639 58.0539 70.8027 56.9838C72.7416 55.8468 74.6805 54.7433 76.6194 53.6731C78.5583 52.603 80.5975 51.7001 82.7369 50.9644C83.2718 50.2287 83.9069 49.6268 84.6424 49.1586C85.4447 48.6904 86.1133 48.0885 86.6481 47.3528C87.3167 47.3528 87.8181 47.219 88.1524 46.9515C88.4867 46.617 88.9213 46.383 89.4562 46.2492C92.6653 43.4401 95.9414 40.7983 99.2843 38.3236C102.627 35.849 105.836 33.2071 108.912 30.3981C109.179 29.4617 109.614 28.5588 110.216 27.6893C110.884 26.753 111.519 25.8166 112.121 24.8803C112.723 23.9439 113.258 23.0076 113.726 22.0712C114.194 21.1348 114.428 20.1316 114.428 19.0615Z" fill="white"/>
<path d="M184.829 31.2006V31.6019C184.361 31.7357 184.127 32.0701 184.127 32.6052C183.392 32.9396 182.623 33.2071 181.821 33.4078C181.018 33.5415 180.249 33.7756 179.514 34.11C178.779 34.0432 178.01 34.0097 177.207 34.0097C176.472 33.9428 175.737 33.9094 175.001 33.9094C172.995 33.9094 170.99 33.9763 168.984 34.11C166.978 34.2438 164.972 34.2438 162.967 34.11C162.031 34.6451 160.994 35.0798 159.858 35.4142C158.788 35.6818 157.752 35.8155 156.749 35.8155C155.947 35.8155 155.245 35.7152 154.643 35.5146C153.038 36.3172 151.266 36.986 149.328 37.521C147.456 38.0561 145.55 38.5912 143.611 39.1262C141.672 39.5944 139.8 40.1629 137.995 40.8317C136.257 41.4337 134.719 42.3031 133.382 43.4401C133.248 44.3765 133.148 45.3128 133.081 46.2492C133.014 47.1187 132.981 47.9881 132.981 48.8576C132.981 49.794 133.014 50.6634 133.081 51.466C133.215 52.2686 133.449 53.0712 133.783 53.8738C134.117 54.0076 134.485 54.1079 134.886 54.1748C135.354 54.2416 135.755 54.2751 136.09 54.2751C136.424 54.2751 136.758 54.2416 137.093 54.1748C137.427 54.041 137.661 53.8069 137.795 53.4725C138.797 53.3387 139.8 53.3053 140.803 53.3722C141.806 53.3722 142.809 53.3722 143.812 53.3722C144.815 53.3722 145.784 53.3387 146.72 53.2718C147.723 53.205 148.692 53.0378 149.628 52.7702C150.698 52.5027 151.734 52.3355 152.737 52.2686C153.807 52.2017 154.843 52.1348 155.846 52.068C156.849 52.0011 157.885 51.9008 158.955 51.767C160.025 51.5663 161.128 51.1985 162.265 50.6634C163.134 50.9978 164.003 51.1651 164.872 51.1651C165.808 51.1651 166.711 51.2319 167.58 51.3657C168.048 51.7001 168.416 52.068 168.683 52.4693C169.017 52.8706 169.184 53.3387 169.184 53.8738C169.184 54.8101 168.85 55.7465 168.182 56.6828C167.513 57.6192 166.978 58.4887 166.577 59.2913H165.474C163.869 59.2913 162.298 59.5254 160.76 59.9935C159.289 60.3948 157.785 60.8964 156.247 61.4984C154.777 62.0334 153.272 62.5351 151.734 63.0032C150.264 63.4045 148.726 63.6052 147.121 63.6052C146.854 63.6052 146.687 63.7724 146.62 64.1068C146.62 64.3743 146.553 64.575 146.419 64.7087C146.085 64.6419 145.584 64.6084 144.915 64.6084C143.377 64.6084 141.906 64.7756 140.502 65.11C139.098 65.4444 137.661 65.6116 136.19 65.6116C135.789 65.6116 135.388 65.6116 134.987 65.6116C134.585 65.5448 134.184 65.4779 133.783 65.411C133.449 65.9461 133.014 66.3139 132.479 66.5146C131.944 66.6483 131.443 66.9159 130.975 67.3172C130.774 67.9191 130.641 68.6548 130.574 69.5243C130.574 70.3937 130.54 71.2967 130.474 72.233C130.474 73.1025 130.407 73.9385 130.273 74.7411C130.139 75.5437 129.872 76.1791 129.471 76.6472C129.538 76.9817 129.805 77.1154 130.273 77.0485C130.741 76.9148 130.975 77.1154 130.975 77.6505C130.975 78.2524 130.908 78.8878 130.774 79.5566C130.641 80.2255 130.574 80.8943 130.574 81.5631C130.574 82.8339 130.708 84.2384 130.975 85.7767C131.309 87.2481 131.777 88.6192 132.379 89.89C133.048 91.1607 133.917 92.2309 134.987 93.1003C136.056 93.9029 137.393 94.3042 138.998 94.3042C140.068 94.3042 141.071 94.1036 142.007 93.7023C142.943 93.301 143.712 92.6321 144.313 91.6958L144.815 91.5955C145.082 91.5955 145.316 91.6289 145.517 91.6958C145.784 91.7627 146.052 91.7961 146.319 91.7961C146.72 91.7961 147.222 91.562 147.823 91.0938C148.492 90.5588 149.194 89.9568 149.929 89.288C150.732 88.6192 151.534 87.9838 152.336 87.3819C153.139 86.7131 153.907 86.2449 154.643 85.9773C155.111 85.041 155.545 84.1046 155.947 83.1683C156.415 82.2319 157.083 81.4962 157.952 80.9612V78.0518C158.621 77.3161 159.323 76.6472 160.058 76.0453C160.861 75.4434 161.462 74.6742 161.863 73.7379C162.198 73.8716 162.499 73.972 162.766 74.0388C163.1 74.1057 163.435 74.1392 163.769 74.1392C164.103 74.1392 164.438 74.1057 164.772 74.0388C165.173 73.972 165.541 73.8716 165.875 73.7379C166.41 74.4736 166.811 75.3096 167.078 76.246C167.413 77.1154 167.814 77.9515 168.282 78.754C167.68 79.9579 166.978 81.3959 166.176 83.068C165.374 84.74 164.504 86.4121 163.568 88.0841C162.632 89.7562 161.629 91.3614 160.56 92.8997C159.557 94.3711 158.554 95.5081 157.551 96.3107C157.351 96.5113 156.916 96.7454 156.247 97.0129C155.512 97.548 154.843 98.0496 154.242 98.5178C153.64 99.0529 153.072 99.6548 152.537 100.324C150.598 100.926 148.726 101.728 146.921 102.731C145.182 103.735 143.444 104.704 141.706 105.641C140.903 105.44 140.034 105.34 139.098 105.34C138.296 105.34 137.494 105.373 136.691 105.44C135.889 105.574 135.02 105.641 134.084 105.641C133.817 105.306 133.415 105.072 132.88 104.939C132.412 104.872 132.245 104.537 132.379 103.935C130.106 103.802 128.267 103.166 126.863 102.029C125.459 100.959 124.256 99.6214 123.253 98.0162C122.317 96.411 121.548 94.6721 120.946 92.7994C120.345 90.9266 119.709 89.1208 119.041 87.3819V87.0809C119.041 86.7465 119.175 86.5458 119.442 86.479C119.709 86.4121 119.843 86.2114 119.843 85.877C119.843 85.7433 119.81 85.6429 119.743 85.576C119.542 84.8403 119.375 84.205 119.241 83.6699C119.108 83.1348 119.041 82.4995 119.041 81.7638C119.041 80.6936 119.108 79.657 119.241 78.6537C119.375 77.5836 119.442 76.5135 119.442 75.4434C119.442 74.3732 119.308 73.4369 119.041 72.6343C119.308 72.2999 119.542 71.8652 119.743 71.3301C119.877 70.7282 119.977 70.1262 120.044 69.5243C120.111 68.9223 120.144 68.3204 120.144 67.7184C120.211 67.1165 120.311 66.5814 120.445 66.1133C120.177 65.3776 119.943 64.7422 119.743 64.2071C119.542 63.6052 119.442 62.9029 119.442 62.1003V61.3981C120.111 60.2611 120.679 59.0906 121.147 57.8867C121.615 56.6828 122.116 55.4455 122.651 54.1748V53.8738C122.651 51.9342 122.584 49.9946 122.451 48.055C122.317 46.1154 122.25 44.1758 122.25 42.2362V40.3301C122.25 39.6613 122.283 39.0259 122.35 38.424C122.885 38.1564 123.286 37.7886 123.554 37.3204C123.821 36.8522 124.222 36.4844 124.757 36.2168H128.067L128.668 35.2136C128.869 34.8792 129.003 34.5113 129.07 34.11C129.805 33.9094 130.507 33.6419 131.176 33.3074C131.911 32.9062 132.58 32.5049 133.181 32.1036C134.117 31.5685 134.953 31.1003 135.689 30.699C136.491 30.2309 137.26 29.863 137.995 29.5955C138.797 29.2611 139.633 28.9935 140.502 28.7929C141.371 28.5922 142.374 28.425 143.511 28.2913C144.046 28.2913 144.38 28.1909 144.514 27.9903C144.714 27.7896 144.982 27.5556 145.316 27.288C146.118 27.4218 146.921 27.5556 147.723 27.6893C148.525 27.7562 149.328 27.7896 150.13 27.7896C151.734 27.7896 153.239 27.4887 154.643 26.8867C156.649 26.8867 158.621 26.8533 160.56 26.7864C162.566 26.7195 164.571 26.6861 166.577 26.6861C168.315 26.6861 170.054 26.753 171.792 26.8867C173.53 27.0205 175.235 27.2546 176.907 27.589C177.508 27.3883 178.177 27.288 178.912 27.288C179.715 27.288 180.517 27.3883 181.319 27.589C182.188 27.7228 183.024 27.7228 183.826 27.589C183.893 28.3247 184.06 28.9601 184.328 29.4951C184.662 29.9633 184.829 30.5318 184.829 31.2006Z" fill="white"/>
<path d="M255.231 24.2783C255.231 24.8803 255.097 25.4488 254.83 25.9838L254.128 27.4887C253.927 27.9569 253.727 28.4585 253.526 28.9935C253.325 29.5286 253.259 30.164 253.325 30.8997C252.389 31.9698 251.453 33.0065 250.517 34.0097C249.581 35.0129 248.746 36.1499 248.01 37.4207C247.275 37.3538 246.706 37.521 246.305 37.9223C245.971 38.3236 245.704 38.8587 245.503 39.5275C244.099 39.9957 242.862 40.7314 241.792 41.7346C240.723 42.671 239.787 43.7077 238.984 44.8447C235.441 46.3161 232.131 48.1219 229.056 50.2621C225.98 52.4024 223.172 54.9105 220.632 57.7864C221.835 57.7864 223.005 57.9202 224.142 58.1877C225.345 58.4552 226.515 58.7562 227.652 59.0906C228.855 59.3581 230.025 59.6257 231.162 59.8932C232.299 60.0939 233.469 60.1273 234.672 59.9935C235.541 60.7961 236.511 61.4649 237.58 62C238.717 62.5351 239.82 63.0367 240.89 63.5049C242.026 63.973 243.096 64.5081 244.099 65.11C245.169 65.712 246.105 66.4477 246.907 67.3172C246.907 67.4509 246.874 67.5847 246.807 67.7184C246.807 67.7853 246.807 67.8857 246.807 68.0194C246.807 68.5545 246.94 69.0895 247.208 69.6246C247.475 70.0928 247.609 70.5944 247.609 71.1294C247.275 71.6645 246.974 72.233 246.706 72.835C246.439 73.4369 246.105 73.972 245.704 74.4401C245.369 74.9083 244.968 75.3096 244.5 75.644C244.032 75.9784 243.397 76.1791 242.595 76.246C242.26 77.383 241.726 78.2859 240.99 78.9547C240.255 79.5566 239.419 80.1251 238.483 80.6602C237.614 81.1284 236.745 81.63 235.875 82.165C235.006 82.6332 234.271 83.2686 233.669 84.0712C231.663 84.5394 229.691 85.2082 227.752 86.0777C225.88 86.8803 224.209 88.0507 222.738 89.589C221.735 89.7228 220.699 89.89 219.629 90.0906C218.626 90.2244 217.623 90.2913 216.62 90.2913C215.216 90.2913 214.08 90.0237 213.211 89.4887C212.341 88.8867 211.84 87.8166 211.706 86.2783C211.907 85.8101 212.208 85.4088 212.609 85.0744L213.913 84.0712C214.381 83.7368 214.782 83.4024 215.116 83.068C215.517 82.6667 215.818 82.1985 216.019 81.6634C216.152 81.6634 216.319 81.6969 216.52 81.7638C216.721 81.7638 216.921 81.7638 217.122 81.7638C217.924 81.7638 218.559 81.5965 219.027 81.2621C219.495 80.9277 219.93 80.5933 220.331 80.2589C220.799 79.9245 221.3 79.6235 221.835 79.356C222.37 79.0885 223.072 78.9881 223.941 79.055C224.409 78.1855 225.111 77.5502 226.047 77.1489C226.983 76.6807 227.953 76.2794 228.956 75.945C229.958 75.5437 230.894 75.109 231.764 74.6408C232.7 74.1057 233.335 73.3366 233.669 72.3333C233.335 71.7983 232.9 71.397 232.365 71.1294C231.831 70.795 231.229 70.5275 230.56 70.3269L228.655 69.7249C228.053 69.5243 227.518 69.2902 227.05 69.0227C226.315 69.2233 225.613 69.3236 224.944 69.3236C223.54 69.3236 222.17 69.1899 220.832 68.9223C219.495 68.6548 218.125 68.521 216.721 68.521C215.45 68.521 214.347 68.6882 213.411 69.0227C213.077 68.9558 212.709 68.8554 212.308 68.7217C211.974 68.5879 211.639 68.4542 211.305 68.3204C209.767 68.9223 208.163 69.2233 206.491 69.2233H199.973C199.438 69.2233 198.903 69.2902 198.368 69.424C197.633 70.7616 197.265 72.1996 197.265 73.7379C197.265 74.8749 197.432 75.9784 197.766 77.0485C198.101 78.0518 198.435 79.1219 198.769 80.2589C200.106 81.4628 201.343 82.9008 202.48 84.5728C203.616 86.178 204.185 87.9504 204.185 89.89C204.185 90.3581 204.151 90.726 204.084 90.9935C203.416 90.5254 202.547 90.2913 201.477 90.2913C200.541 90.2913 199.638 90.425 198.769 90.6926C197.967 90.9601 197.098 91.1607 196.162 91.2945C195.426 90.9601 194.657 90.6257 193.855 90.2913C193.053 89.89 192.284 89.4218 191.548 88.8867C191.014 87.7497 190.479 86.6796 189.944 85.6764C189.409 84.6063 188.74 83.603 187.938 82.6667V82.2654C187.938 79.9245 187.738 77.617 187.336 75.343C187.002 73.069 186.835 70.7616 186.835 68.4207C186.835 67.3506 186.868 66.2805 186.935 65.2104C187.069 64.0734 187.403 63.0367 187.938 62.1003C187.738 60.4951 187.637 58.8231 187.637 57.0841C187.637 53.6063 187.838 50.1284 188.239 46.6505C188.64 43.1726 188.841 39.6278 188.841 36.0162C188.841 35.2805 188.807 34.5448 188.74 33.8091C188.74 33.0734 188.707 32.3377 188.64 31.6019H188.239C187.37 31.6019 186.534 31.7357 185.732 32.0032C184.93 32.2039 184.127 32.438 183.325 32.7055C182.523 32.973 181.687 33.2406 180.818 33.5081C179.949 33.7087 179.079 33.8091 178.21 33.8091C177.675 34.0766 177.241 34.3441 176.907 34.6117C176.572 34.8792 176.238 35.1133 175.904 35.3139C175.569 35.5146 175.202 35.6818 174.801 35.8155C174.333 35.9493 173.798 35.9827 173.196 35.9159C172.46 36.384 171.892 36.7519 171.491 37.0194C171.023 37.2201 170.388 37.4542 169.586 37.7217C169.184 37.8554 168.85 38.0561 168.583 38.3236L167.78 39.0259C167.513 39.2265 167.212 39.4272 166.878 39.6278C166.544 39.8285 166.109 39.9288 165.574 39.9288C165.106 39.9288 164.772 39.8954 164.571 39.8285C164.17 39.4941 163.836 39.0928 163.568 38.6246C163.234 38.1564 162.933 37.7217 162.666 37.3204C162.331 36.8522 161.997 36.4509 161.663 36.1165C161.262 35.7152 160.794 35.4142 160.259 35.2136C160.526 34.8792 160.66 34.6117 160.66 34.411C160.593 34.1435 160.56 33.8425 160.56 33.5081C160.56 33.3074 160.593 33.1737 160.66 33.1068C160.994 31.9029 161.596 30.9666 162.465 30.2977C163.334 29.562 164.304 28.9935 165.374 28.5922C166.443 28.1241 167.546 27.7228 168.683 27.3883C169.753 27.0539 170.756 26.6526 171.692 26.1845C174.299 26.2513 176.673 26.0173 178.812 25.4822C180.951 24.8803 183.158 24.0442 185.431 22.9741C185.832 23.1748 186.233 23.2751 186.634 23.2751C186.969 23.2751 187.303 23.2416 187.637 23.1748L188.64 22.9741C189.442 22.3053 190.312 21.8706 191.248 21.6699C192.184 21.4693 193.12 21.302 194.056 21.1683C194.992 21.0345 195.894 20.9008 196.763 20.767C197.633 20.5663 198.401 20.1985 199.07 19.6634H199.471C201.076 19.6634 202.68 19.3959 204.285 18.8608C205.956 18.3258 207.561 18.1251 209.099 18.2589C210.436 17.5232 211.673 17.055 212.809 16.8544C213.946 16.6537 215.25 16.5534 216.721 16.5534C217.055 16.5534 217.456 16.4196 217.924 16.1521C218.392 15.8177 218.96 15.6505 219.629 15.6505C219.763 15.6505 219.863 15.6839 219.93 15.7508C220.063 15.7508 220.197 15.7508 220.331 15.7508C220.933 15.7508 221.334 15.5502 221.534 15.1489C221.802 14.7476 222.437 14.5469 223.44 14.5469C223.908 14.5469 224.342 14.5804 224.744 14.6472C225.145 14.6472 225.546 14.6472 225.947 14.6472C226.415 14.6472 226.716 14.48 226.85 14.1456C226.983 13.7443 227.284 13.5771 227.752 13.644C227.953 13.9115 228.287 14.0453 228.755 14.0453C229.223 13.9784 229.591 13.945 229.858 13.945C230.326 13.945 230.594 14.0787 230.66 14.3463C231.73 13.6775 232.9 13.2427 234.171 13.0421C235.508 12.8414 236.778 12.7411 237.981 12.7411C238.449 12.7411 238.917 12.7745 239.385 12.8414C239.853 12.8414 240.355 12.8749 240.89 12.9417C241.492 12.5405 242.194 12.3398 242.996 12.3398C243.464 12.3398 244.199 12.5405 245.202 12.9417C246.272 13.343 247.375 13.8112 248.512 14.3463C249.648 14.8813 250.684 15.4498 251.62 16.0518C252.557 16.6537 253.125 17.1553 253.325 17.5566C253.459 17.6904 253.526 17.9914 253.526 18.4595C253.593 18.9277 253.693 19.329 253.827 19.6634C254.161 20.466 254.462 21.2352 254.729 21.9709C255.064 22.6397 255.231 23.4088 255.231 24.2783ZM244.099 25.3819C244.099 25.2481 244.066 25.1143 243.999 24.9806C243.999 24.7799 243.999 24.6127 243.999 24.479C243.664 24.0777 243.196 23.7767 242.595 23.5761C242.06 23.3754 241.458 23.2082 240.789 23.0744C240.188 22.9407 239.553 22.8403 238.884 22.7735C238.282 22.6397 237.747 22.4725 237.279 22.2718C235.875 22.74 234.338 22.9741 232.666 22.9741C231.128 22.9741 229.758 22.74 228.554 22.2718C227.953 22.8738 227.184 23.342 226.248 23.6764C225.312 24.0108 224.309 24.2783 223.239 24.479C222.236 24.6127 221.2 24.7131 220.13 24.7799C219.127 24.7799 218.225 24.7799 217.423 24.7799C217.155 24.7799 216.687 24.9806 216.019 25.3819C215.35 25.7832 214.748 25.9838 214.213 25.9838C213.812 25.9838 213.445 25.8166 213.11 25.4822C212.509 25.9504 211.673 26.3517 210.603 26.6861C209.533 27.0205 208.43 27.3215 207.294 27.589C206.157 27.7896 204.987 28.0237 203.784 28.2913C202.647 28.5588 201.677 28.8263 200.875 29.0939C200.073 30.8328 199.638 32.7389 199.571 34.8123C199.505 36.8188 199.471 38.7918 199.471 40.7314C199.471 41.8684 199.404 42.972 199.271 44.0421C199.137 45.1122 199.07 46.2158 199.07 47.3528C199.07 47.8878 199.103 48.4563 199.17 49.0583C199.237 49.5933 199.438 50.1284 199.772 50.6634C199.237 51.0647 198.869 51.5998 198.669 52.2686C198.535 52.8706 198.468 53.4725 198.468 54.0744C198.468 54.8101 198.535 55.479 198.669 56.0809C198.803 56.6828 198.936 57.2514 199.07 57.7864C201.209 57.5858 203.148 57.1845 204.887 56.5825C206.692 55.9806 208.363 55.2449 209.901 54.3754C211.506 53.5059 213.043 52.5027 214.514 51.3657C215.985 50.2287 217.523 49.0248 219.127 47.754C219.796 47.6203 220.331 47.4196 220.732 47.1521C221.2 46.8846 221.768 46.7508 222.437 46.7508C222.704 45.8145 223.206 45.1791 223.941 44.8447C224.677 44.4434 225.245 43.8749 225.646 43.1392C226.448 42.9385 227.117 42.671 227.652 42.3366C228.254 41.9353 228.822 41.5674 229.357 41.233C229.892 40.8317 230.46 40.4639 231.062 40.1295C231.73 39.795 232.466 39.5944 233.268 39.5275C234.405 38.1899 235.575 36.8522 236.778 35.5146C238.048 34.1769 239.519 33.1068 241.191 32.3042C241.458 31.6354 241.759 31.0669 242.093 30.5987C242.428 30.0636 242.728 29.562 242.996 29.0939C243.33 28.5588 243.598 28.0237 243.798 27.4887C243.999 26.8867 244.099 26.1845 244.099 25.3819Z" fill="white"/>
<path d="M320.016 31.2006V31.6019C319.548 31.7357 319.314 32.0701 319.314 32.6052C318.579 32.9396 317.81 33.2071 317.008 33.4078C316.205 33.5415 315.437 33.7756 314.701 34.11C313.966 34.0432 313.197 34.0097 312.395 34.0097C311.659 33.9428 310.924 33.9094 310.188 33.9094C308.182 33.9094 306.177 33.9763 304.171 34.11C302.165 34.2438 300.159 34.2438 298.154 34.11C297.218 34.6451 296.181 35.0798 295.045 35.4142C293.975 35.6818 292.939 35.8155 291.936 35.8155C291.134 35.8155 290.432 35.7152 289.83 35.5146C288.225 36.3172 286.454 36.986 284.515 37.521C282.643 38.0561 280.737 38.5912 278.798 39.1262C276.859 39.5944 274.987 40.1629 273.182 40.8317C271.444 41.4337 269.906 42.3031 268.569 43.4401C268.435 44.3765 268.335 45.3128 268.268 46.2492C268.201 47.1187 268.168 47.9881 268.168 48.8576C268.168 49.794 268.201 50.6634 268.268 51.466C268.402 52.2686 268.636 53.0712 268.97 53.8738C269.304 54.0076 269.672 54.1079 270.073 54.1748C270.541 54.2416 270.943 54.2751 271.277 54.2751C271.611 54.2751 271.945 54.2416 272.28 54.1748C272.614 54.041 272.848 53.8069 272.982 53.4725C273.985 53.3387 274.987 53.3053 275.99 53.3722C276.993 53.3722 277.996 53.3722 278.999 53.3722C280.002 53.3722 280.971 53.3387 281.907 53.2718C282.91 53.205 283.88 53.0378 284.816 52.7702C285.885 52.5027 286.922 52.3355 287.924 52.2686C288.994 52.2017 290.03 52.1348 291.033 52.068C292.036 52.0011 293.073 51.9008 294.142 51.767C295.212 51.5663 296.315 51.1985 297.452 50.6634C298.321 50.9978 299.19 51.1651 300.059 51.1651C300.995 51.1651 301.898 51.2319 302.767 51.3657C303.235 51.7001 303.603 52.068 303.87 52.4693C304.204 52.8706 304.372 53.3387 304.372 53.8738C304.372 54.8101 304.037 55.7465 303.369 56.6828C302.7 57.6192 302.165 58.4887 301.764 59.2913H300.661C299.056 59.2913 297.485 59.5254 295.947 59.9935C294.477 60.3948 292.972 60.8964 291.435 61.4984C289.964 62.0334 288.459 62.5351 286.922 63.0032C285.451 63.4045 283.913 63.6052 282.308 63.6052C282.041 63.6052 281.874 63.7724 281.807 64.1068C281.807 64.3743 281.74 64.575 281.606 64.7087C281.272 64.6419 280.771 64.6084 280.102 64.6084C278.564 64.6084 277.093 64.7756 275.689 65.11C274.285 65.4444 272.848 65.6116 271.377 65.6116C270.976 65.6116 270.575 65.6116 270.174 65.6116C269.772 65.5448 269.371 65.4779 268.97 65.411C268.636 65.9461 268.201 66.3139 267.666 66.5146C267.132 66.6483 266.63 66.9159 266.162 67.3172C265.962 67.9191 265.828 68.6548 265.761 69.5243C265.761 70.3937 265.728 71.2967 265.661 72.233C265.661 73.1025 265.594 73.9385 265.46 74.7411C265.326 75.5437 265.059 76.1791 264.658 76.6472C264.725 76.9817 264.992 77.1154 265.46 77.0485C265.928 76.9148 266.162 77.1154 266.162 77.6505C266.162 78.2524 266.095 78.8878 265.962 79.5566C265.828 80.2255 265.761 80.8943 265.761 81.5631C265.761 82.8339 265.895 84.2384 266.162 85.7767C266.496 87.2481 266.964 88.6192 267.566 89.89C268.235 91.1607 269.104 92.2309 270.174 93.1003C271.243 93.9029 272.581 94.3042 274.185 94.3042C275.255 94.3042 276.258 94.1036 277.194 93.7023C278.13 93.301 278.899 92.6321 279.5 91.6958L280.002 91.5955C280.269 91.5955 280.503 91.6289 280.704 91.6958C280.971 91.7627 281.239 91.7961 281.506 91.7961C281.907 91.7961 282.409 91.562 283.01 91.0938C283.679 90.5588 284.381 89.9568 285.116 89.288C285.919 88.6192 286.721 87.9838 287.523 87.3819C288.326 86.7131 289.094 86.2449 289.83 85.9773C290.298 85.041 290.733 84.1046 291.134 83.1683C291.602 82.2319 292.27 81.4962 293.139 80.9612V78.0518C293.808 77.3161 294.51 76.6472 295.245 76.0453C296.048 75.4434 296.649 74.6742 297.051 73.7379C297.385 73.8716 297.686 73.972 297.953 74.0388C298.287 74.1057 298.622 74.1392 298.956 74.1392C299.29 74.1392 299.625 74.1057 299.959 74.0388C300.36 73.972 300.728 73.8716 301.062 73.7379C301.597 74.4736 301.998 75.3096 302.266 76.246C302.6 77.1154 303.001 77.9515 303.469 78.754C302.867 79.9579 302.165 81.3959 301.363 83.068C300.561 84.74 299.691 86.4121 298.755 88.0841C297.819 89.7562 296.817 91.3614 295.747 92.8997C294.744 94.3711 293.741 95.5081 292.738 96.3107C292.538 96.5113 292.103 96.7454 291.435 97.0129C290.699 97.548 290.03 98.0496 289.429 98.5178C288.827 99.0529 288.259 99.6548 287.724 100.324C285.785 100.926 283.913 101.728 282.108 102.731C280.37 103.735 278.631 104.704 276.893 105.641C276.091 105.44 275.221 105.34 274.285 105.34C273.483 105.34 272.681 105.373 271.879 105.44C271.076 105.574 270.207 105.641 269.271 105.641C269.004 105.306 268.602 105.072 268.068 104.939C267.6 104.872 267.432 104.537 267.566 103.935C265.293 103.802 263.454 103.166 262.05 102.029C260.646 100.959 259.443 99.6214 258.44 98.0162C257.504 96.411 256.735 94.6721 256.133 92.7994C255.532 90.9266 254.897 89.1208 254.228 87.3819V87.0809C254.228 86.7465 254.362 86.5458 254.629 86.479C254.897 86.4121 255.03 86.2114 255.03 85.877C255.03 85.7433 254.997 85.6429 254.93 85.576C254.729 84.8403 254.562 84.205 254.429 83.6699C254.295 83.1348 254.228 82.4995 254.228 81.7638C254.228 80.6936 254.295 79.657 254.429 78.6537C254.562 77.5836 254.629 76.5135 254.629 75.4434C254.629 74.3732 254.495 73.4369 254.228 72.6343C254.495 72.2999 254.729 71.8652 254.93 71.3301C255.064 70.7282 255.164 70.1262 255.231 69.5243C255.298 68.9223 255.331 68.3204 255.331 67.7184C255.398 67.1165 255.498 66.5814 255.632 66.1133C255.365 65.3776 255.131 64.7422 254.93 64.2071C254.729 63.6052 254.629 62.9029 254.629 62.1003V61.3981C255.298 60.2611 255.866 59.0906 256.334 57.8867C256.802 56.6828 257.303 55.4455 257.838 54.1748V53.8738C257.838 51.9342 257.771 49.9946 257.638 48.055C257.504 46.1154 257.437 44.1758 257.437 42.2362V40.3301C257.437 39.6613 257.471 39.0259 257.537 38.424C258.072 38.1564 258.473 37.7886 258.741 37.3204C259.008 36.8522 259.409 36.4844 259.944 36.2168H263.254L263.856 35.2136C264.056 34.8792 264.19 34.5113 264.257 34.11C264.992 33.9094 265.694 33.6419 266.363 33.3074C267.098 32.9062 267.767 32.5049 268.368 32.1036C269.304 31.5685 270.14 31.1003 270.876 30.699C271.678 30.2309 272.447 29.863 273.182 29.5955C273.985 29.2611 274.82 28.9935 275.689 28.7929C276.559 28.5922 277.561 28.425 278.698 28.2913C279.233 28.2913 279.567 28.1909 279.701 27.9903C279.901 27.7896 280.169 27.5556 280.503 27.288C281.306 27.4218 282.108 27.5556 282.91 27.6893C283.712 27.7562 284.515 27.7896 285.317 27.7896C286.922 27.7896 288.426 27.4887 289.83 26.8867C291.836 26.8867 293.808 26.8533 295.747 26.7864C297.753 26.7195 299.758 26.6861 301.764 26.6861C303.502 26.6861 305.241 26.753 306.979 26.8867C308.717 27.0205 310.422 27.2546 312.094 27.589C312.695 27.3883 313.364 27.288 314.099 27.288C314.902 27.288 315.704 27.3883 316.506 27.589C317.375 27.7228 318.211 27.7228 319.013 27.589C319.08 28.3247 319.247 28.9601 319.515 29.4951C319.849 29.9633 320.016 30.5318 320.016 31.2006Z" fill="white"/>
<path d="M394.53 89.89C394.53 90.425 394.296 90.8598 393.828 91.1942C393.36 91.5286 392.825 91.863 392.223 92.1974L390.418 93.1003C389.816 93.3679 389.415 93.7357 389.215 94.2039C388.479 94.0032 387.744 93.8695 387.008 93.8026C386.34 93.7357 385.671 93.7023 385.002 93.7023C384.133 93.7023 383.231 93.8026 382.295 94.0032C381.359 94.137 380.623 94.5717 380.088 95.3074C379.754 95.1737 379.453 95.1068 379.186 95.1068H378.383C377.381 95.1068 376.344 95.1737 375.275 95.3074C374.272 95.5081 373.269 95.6084 372.266 95.6084C371.731 95.6084 371.196 95.575 370.661 95.5081C370.193 95.4412 369.759 95.2406 369.358 94.9062C368.756 95.1068 368.121 95.2071 367.452 95.2071C366.583 95.2071 365.747 95.0734 364.945 94.8058C364.143 94.5383 363.34 94.2373 362.538 93.9029C361.803 93.5016 361.034 93.1338 360.232 92.7994C359.429 92.4649 358.627 92.1974 357.825 91.9968L357.123 90.5922C356.053 90.3916 355.05 90.0906 354.114 89.6893C353.245 89.2211 352.376 88.7195 351.507 88.1845C350.637 87.6494 349.768 87.1478 348.899 86.6796C348.097 86.1446 347.261 85.7767 346.392 85.576C346.058 85.3085 345.757 85.0744 345.489 84.8738C345.222 84.6063 345.021 84.2384 344.888 83.7702C344.018 83.5696 343.216 83.302 342.481 82.9676L340.375 81.8641C339.706 81.4628 338.937 81.1284 338.068 80.8608C337.266 80.5264 336.296 80.3258 335.16 80.2589C334.759 79.657 334.19 79.0885 333.455 78.5534C332.719 78.0183 331.984 77.7508 331.249 77.7508C330.781 77.7508 330.413 77.8511 330.145 78.0518V78.5534C330.145 79.356 330.379 80.1586 330.847 80.9612C331.315 81.7638 331.917 82.3323 332.653 82.6667C332.586 82.8004 332.552 83.0011 332.552 83.2686C332.552 83.6699 332.619 84.0712 332.753 84.4725C332.953 84.8738 333.288 85.1413 333.756 85.2751C333.488 86.0108 333.154 86.7799 332.753 87.5825C332.352 88.3182 331.85 89.0205 331.249 89.6893C330.647 90.3581 329.978 90.9266 329.243 91.3948C328.574 91.7961 327.805 91.9968 326.936 91.9968C326.669 92.1305 326.468 92.3312 326.334 92.5987C326.268 92.8662 326.201 93.1672 326.134 93.5016C326.134 93.7691 326.067 94.0367 325.933 94.3042C325.866 94.5717 325.733 94.7724 325.532 94.9062C325.265 94.973 324.897 95.0065 324.429 95.0065C323.76 95.0065 323.192 94.9062 322.724 94.7055C322.256 94.5049 321.755 94.2373 321.22 93.9029V93.5016C321.22 92.699 321.053 92.0636 320.718 91.5955C320.451 91.1273 320.117 90.6926 319.715 90.2913C319.381 89.8231 319.047 89.3549 318.713 88.8867C318.445 88.4186 318.311 87.7832 318.311 86.9806C318.111 87.1143 317.877 87.2147 317.609 87.2816C317.409 87.3484 317.275 87.4822 317.208 87.6828C317.075 87.014 317.008 86.4455 317.008 85.9773C317.008 84.6397 317.208 83.3689 317.609 82.165C318.077 80.9612 318.311 79.6904 318.311 78.3528V76.8479C318.311 75.3096 318.278 73.8047 318.211 72.3333C318.144 70.8619 318.111 69.3905 318.111 67.9191C318.111 66.6483 318.144 65.411 318.211 64.2071C318.278 62.9364 318.412 61.6656 318.612 60.3948C319.348 55.9806 319.949 51.5998 320.418 47.2524C320.952 42.8382 321.788 38.4574 322.925 34.11C322.858 33.7756 322.758 33.4412 322.624 33.1068C322.557 32.7724 322.524 32.438 322.524 32.1036C322.524 31.836 322.557 31.6688 322.624 31.6019C322.891 30.2643 323.493 29.1607 324.429 28.2913C325.365 27.3549 326.568 26.8867 328.039 26.8867H328.34C329.142 27.2211 329.744 27.7228 330.145 28.3916C330.613 28.9935 331.315 29.2276 332.251 29.0939C332.251 29.2276 332.218 29.3614 332.151 29.4951C332.151 29.6289 332.151 29.7627 332.151 29.8964C332.151 30.6321 332.352 31.1672 332.753 31.5016C333.154 31.836 333.622 32.2039 334.157 32.6052C333.823 33.274 333.589 34.0432 333.455 34.9126C333.388 35.7821 333.321 36.6516 333.254 37.521C333.187 38.3905 333.054 39.2265 332.853 40.0291C332.719 40.8317 332.419 41.5005 331.951 42.0356C332.218 42.7044 332.385 43.3732 332.452 44.0421C332.519 44.7109 332.552 45.4132 332.552 46.1489C332.552 46.8846 332.519 47.6537 332.452 48.4563C332.385 49.192 332.352 49.9612 332.352 50.7638C332.352 51.4995 332.452 52.1683 332.653 52.7702C334.123 52.7702 334.959 52.068 335.16 50.6634C336.898 50.1953 338.436 49.5599 339.773 48.7573C341.177 47.8878 342.514 46.9849 343.784 46.0485C345.055 45.1122 346.292 44.1424 347.495 43.1392C348.765 42.1359 350.169 41.2665 351.707 40.5307V40.3301C351.707 39.9957 351.807 39.795 352.008 39.7282C352.209 39.5944 352.242 39.2934 352.108 38.8252C353.111 38.4908 353.947 38.0561 354.615 37.521C355.351 36.9191 356.019 36.2837 356.621 35.6149L358.527 33.5081C359.195 32.7724 359.931 32.137 360.733 31.6019C361.268 30.4649 361.736 29.2611 362.137 27.9903C362.605 26.7195 363.207 25.5491 363.942 24.479C365.212 24.479 366.583 24.5793 368.054 24.7799C369.592 24.9806 370.895 25.4488 371.965 26.1845C371.831 26.7195 372.065 27.0874 372.667 27.288C371.932 30.0971 370.829 32.6386 369.358 34.9126C367.887 37.1197 365.981 38.9925 363.641 40.5307C363.307 41.2665 362.872 41.9018 362.338 42.4369C361.803 42.972 361.268 43.507 360.733 44.0421C360.198 44.5103 359.663 45.0119 359.128 45.5469C358.593 46.082 358.159 46.7174 357.825 47.4531C357.022 47.5868 356.32 47.8209 355.719 48.1553C355.184 48.4898 354.649 48.891 354.114 49.3592C353.646 49.7605 353.111 50.1618 352.509 50.5631C351.975 50.8975 351.373 51.1651 350.704 51.3657C350.169 52.0345 349.534 52.603 348.799 53.0712C348.13 53.5394 347.428 54.0076 346.693 54.4757C346.024 54.877 345.389 55.3452 344.787 55.8803C344.186 56.3484 343.751 56.9838 343.484 57.7864H340.876C340.141 59.0572 339.171 60.1273 337.968 60.9968C336.831 61.7994 335.661 62.5685 334.458 63.3042C334.658 64.1068 335.026 64.7756 335.561 65.3107C336.096 65.7789 336.664 66.2136 337.266 66.6149C337.934 67.0162 338.569 67.4509 339.171 67.9191C339.84 68.3204 340.408 68.822 340.876 69.424C343.684 70.4941 346.392 71.7314 348.999 73.1359C351.607 74.4736 354.081 76.1122 356.421 78.0518C356.554 77.9849 356.721 77.9515 356.922 77.9515C357.457 77.9515 357.891 78.1187 358.226 78.4531C358.56 78.7206 359.028 78.8209 359.63 78.754C359.897 79.4229 360.265 79.891 360.733 80.1586C361.201 80.3592 361.669 80.5264 362.137 80.6602C362.672 80.794 363.173 80.9946 363.641 81.2621C364.109 81.5297 364.444 81.9978 364.644 82.6667C365.647 82.7336 366.55 82.9342 367.352 83.2686C368.221 83.603 368.99 84.1381 369.659 84.8738H370.862C373.001 84.8738 375.074 85.0744 377.08 85.4757C379.085 85.877 381.125 86.0777 383.197 86.0777C384.267 86.0777 385.303 86.0108 386.306 85.877C387.309 85.6764 388.278 85.342 389.215 84.8738C389.549 85.0744 389.917 85.2751 390.318 85.4757C390.719 85.6764 391.153 85.7767 391.621 85.7767C391.956 85.7767 392.457 85.7098 393.126 85.576C393.193 86.3118 393.427 87.014 393.828 87.6828C394.296 88.3517 394.53 89.0874 394.53 89.89Z" fill="white"/>
<path d="M454 87.6828C453.799 88.6192 453.365 89.3884 452.696 89.9903C452.095 90.5254 451.359 90.9601 450.49 91.2945C449.621 91.6289 448.718 91.863 447.782 91.9968C446.913 92.0636 446.111 92.0971 445.375 92.0971C445.041 92.0971 444.707 92.0971 444.372 92.0971C444.105 92.0302 443.804 91.9968 443.47 91.9968C443.136 91.9968 442.968 92.164 442.968 92.4984C442.968 92.8328 442.801 93.0669 442.467 93.2006C442.133 93.0669 441.798 92.9666 441.464 92.8997C441.13 92.8328 440.796 92.7994 440.461 92.7994C439.993 92.7994 439.525 92.8328 439.057 92.8997C438.656 92.9666 438.255 93 437.854 93C437.319 93 436.918 92.9331 436.65 92.7994C436.45 92.6656 436.249 92.5318 436.049 92.3981C435.915 92.1974 435.748 91.9968 435.547 91.7961C435.413 91.5955 435.179 91.4283 434.845 91.2945C434.377 91.0938 433.976 91.0604 433.642 91.1942C433.374 91.3279 432.94 91.1273 432.338 90.5922C431.536 89.9234 430.834 89.1208 430.232 88.1845C429.697 87.1812 429.162 86.1446 428.627 85.0744C428.092 84.0043 427.524 82.9342 426.922 81.8641C426.321 80.794 425.619 79.8576 424.816 79.055H424.014C422.811 79.055 421.975 79.5566 421.507 80.5599C421.173 80.3592 420.838 80.1251 420.504 79.8576C420.17 79.5232 419.802 79.2557 419.401 79.055C417.863 79.5232 416.259 79.9245 414.587 80.2589C412.916 80.5933 411.244 80.7605 409.573 80.7605H408.169C407.768 80.7605 407.333 80.6936 406.865 80.5599C406.196 80.8274 405.595 81.1618 405.06 81.5631C404.525 81.8975 403.923 82.0647 403.255 82.0647C402.854 82.0647 402.386 81.931 401.851 81.6634C401.45 81.6634 401.249 81.8306 401.249 82.165C401.316 82.4995 401.115 82.6667 400.647 82.6667H399.745C398.809 82.6667 397.873 82.7001 396.937 82.767C396.067 82.8339 395.165 82.8673 394.229 82.8673C392.959 82.8673 391.655 82.7001 390.318 82.3657C389.983 82.5663 389.616 82.6667 389.215 82.6667C388.947 82.8004 388.746 83.0345 388.613 83.3689C388.479 83.6365 388.345 83.904 388.212 84.1715C388.078 84.3722 387.877 84.5728 387.61 84.7735C387.409 84.9072 387.108 84.9407 386.707 84.8738C386.574 85.6764 386.239 86.3118 385.704 86.7799C385.17 87.2481 384.902 87.9504 384.902 88.8867C384.167 89.288 383.565 89.7896 383.097 90.3916C382.629 90.9935 382.161 91.6289 381.693 92.2977C381.225 92.9666 380.724 93.6019 380.189 94.2039C379.721 94.8058 379.119 95.274 378.383 95.6084C378.049 96.0097 377.949 96.6451 378.083 97.5146C377.347 98.1165 376.445 98.6516 375.375 99.1197C374.305 99.5879 373.302 99.822 372.366 99.822C370.427 99.822 369.09 98.7853 368.355 96.712C368.355 96.0432 368.422 95.3409 368.555 94.6052C368.622 93.8026 368.756 93.0669 368.956 92.3981C369.157 91.6624 369.458 91.027 369.859 90.4919C370.26 89.89 370.829 89.4552 371.564 89.1877C371.564 88.5858 371.363 88.1845 370.962 87.9838C370.561 87.7163 370.394 87.2816 370.461 86.6796C372.266 85.8101 373.837 84.6731 375.174 83.2686C376.511 81.8641 377.715 80.3927 378.785 78.8544C379.921 77.2492 381.058 75.644 382.194 74.0388C383.331 72.4337 384.601 70.9957 386.005 69.7249V67.6181C388.011 65.4779 389.315 63.0701 389.917 60.3948C390.652 60.2611 391.12 59.9266 391.321 59.3916C391.588 58.8565 391.722 58.2211 391.722 57.4854C392.056 57.4854 392.257 57.3517 392.323 57.0841C392.457 56.7497 392.758 56.6494 393.226 56.7832C393.828 55.178 394.496 53.7066 395.232 52.3689C395.967 51.0313 396.703 49.6936 397.438 48.356C398.173 46.9515 398.809 45.5135 399.344 44.0421C399.945 42.5707 400.38 40.932 400.647 39.1262C401.583 39.0593 402.085 38.6246 402.152 37.822C402.285 36.9525 402.419 36.1834 402.553 35.5146C403.556 34.5782 404.291 33.4747 404.759 32.2039C405.294 30.9331 405.762 29.6289 406.163 28.2913C406.564 26.8867 406.999 25.5156 407.467 24.178C408.002 22.7735 408.737 21.5361 409.673 20.466V20.165C409.673 19.8306 409.539 19.63 409.272 19.5631C409.004 19.4293 408.871 19.1953 408.871 18.8608C408.938 18.794 408.971 18.7271 408.971 18.6602C409.773 18.3258 410.375 17.7907 410.776 17.055C411.177 16.2524 411.779 15.6839 412.581 15.3495C413.985 16.4865 415.222 17.1888 416.292 17.4563C417.362 17.657 418.766 17.8242 420.504 17.9579C421.373 18.8943 421.841 20.0313 421.908 21.3689C422.042 22.6397 422.276 23.9105 422.61 25.1812C423.145 27.3215 423.713 29.4283 424.315 31.5016C424.984 33.5081 425.485 35.5814 425.819 37.7217C426.02 38.9925 426.388 40.1963 426.922 41.3333C427.457 42.4703 427.825 43.6408 428.026 44.8447C428.159 45.781 428.159 46.8511 428.026 48.055C427.892 49.192 428.026 50.1953 428.427 51.0647L429.129 52.6699C429.463 53.4056 429.73 54.1748 429.931 54.9773C430.199 55.7799 430.433 56.5825 430.633 57.3851C431.168 59.3916 431.636 61.5653 432.037 63.9062C432.505 66.1802 433.207 68.2535 434.143 70.1262C434.477 70.795 434.979 71.2632 435.647 71.5307C436.383 71.7983 437.185 71.9989 438.054 72.1327C438.923 72.1996 439.759 72.233 440.562 72.233C441.431 72.1661 442.166 72.1327 442.768 72.1327H443.771C444.172 72.1327 444.573 72.1996 444.974 72.3333C445.242 72.8684 445.375 73.3366 445.375 73.7379C445.375 74.5405 445.108 75.1758 444.573 75.644C444.038 76.1122 443.771 76.6472 443.771 77.2492C443.771 77.5836 443.904 77.9515 444.172 78.3528C443.904 78.2859 443.503 78.2524 442.968 78.2524C441.431 78.2524 439.926 78.52 438.456 79.055C438.99 80.192 439.692 81.1618 440.562 81.9644C441.498 82.7001 442.467 83.4024 443.47 84.0712C444.138 83.5361 444.84 83.2686 445.576 83.2686C446.378 83.2686 447.114 83.4693 447.782 83.8706C448.518 84.205 449.286 84.3722 450.089 84.3722C450.691 84.3722 451.125 84.2718 451.393 84.0712C451.927 84.6731 452.362 85.3085 452.696 85.9773C453.031 86.5793 453.465 87.1478 454 87.6828ZM422.61 71.6311C422.476 70.4941 422.242 69.6915 421.908 69.2233C421.641 68.6882 421.407 68.0529 421.206 67.3172C420.939 66.3808 420.738 65.3776 420.604 64.3074C420.538 63.2373 420.404 62.2006 420.203 61.1974C419.735 58.9234 419.2 56.6494 418.599 54.3754C418.064 52.1014 417.362 49.8943 416.493 47.754C416.76 47.3528 416.894 46.9849 416.894 46.6505V46.3495C416.292 45.6807 415.857 44.8781 415.59 43.9417C415.323 42.9385 415.055 41.9687 414.788 41.0324C414.587 40.0291 414.286 39.1262 413.885 38.3236C413.551 37.4542 412.983 36.7519 412.18 36.2168C411.98 36.6181 411.879 37.0863 411.879 37.6214C411.879 38.0895 411.913 38.5243 411.98 38.9256C412.113 39.3269 412.18 39.7616 412.18 40.2298C411.512 40.5642 411.01 41.0992 410.676 41.835C410.409 42.5038 409.941 43.0388 409.272 43.4401C408.737 45.5804 407.968 47.6203 406.965 49.5599C405.962 51.4326 404.893 53.3053 403.756 55.178C402.686 57.0507 401.65 58.9569 400.647 60.8964C399.644 62.7691 398.842 64.7422 398.24 66.8155C397.371 67.4175 396.769 68.1866 396.435 69.123C396.168 70.0593 396.034 70.9957 396.034 71.932C396.636 72.2664 397.304 72.4671 398.04 72.534C398.842 72.534 399.611 72.534 400.346 72.534C401.082 72.534 401.784 72.6009 402.452 72.7346C403.121 72.8684 403.723 73.2028 404.258 73.7379C405.127 73.4703 406.063 73.3031 407.066 73.2362C408.135 73.1025 409.004 72.8015 409.673 72.3333C411.01 72.8015 412.448 73.0356 413.985 73.0356C414.788 73.0356 415.557 72.9687 416.292 72.835C417.094 72.7012 417.863 72.534 418.599 72.3333C419.2 72.4671 419.668 72.7012 420.003 73.0356C420.337 73.3031 420.838 73.4035 421.507 73.3366C421.841 73.069 422.042 72.8015 422.109 72.534C422.176 72.1996 422.343 71.8986 422.61 71.6311Z" fill="white"/>
</svg>
