<svg width="9" height="72" viewBox="0 0 9 72" fill="none" xmlns="http://www.w3.org/2000/svg">
<path d="M2.97091 0.706208C2.76738 0.461069 2.48298 0.296934 2.16911 0.243501C1.85524 0.190068 1.53264 0.250848 1.25963 0.414862C0.986634 0.578877 0.78126 0.835306 0.680643 1.13775C0.580026 1.4402 0.590809 1.76872 0.711048 2.06389C11.1742 24.511 -4.03466 48.4063 4.28164 70.9214C4.40564 71.2642 4.65421 71.5475 4.97772 71.7148C5.30123 71.8822 5.67587 71.9212 6.02683 71.824C6.3778 71.7269 6.67925 71.5008 6.87101 71.1908C7.06276 70.8809 7.1307 70.5099 7.06126 70.152C4.34943 56.8693 6.4963 44.5143 7.89741 31.2316C8.91435 20.7547 8.91435 9.80272 2.97091 0.706208Z" fill="#F1EFED"/>
</svg>
