<svg width="155" height="205" viewBox="0 0 155 205" fill="none" xmlns="http://www.w3.org/2000/svg">
<path d="M72.1858 22.666C72.8186 24.182 73.4513 25.6981 74.0615 27.1916C74.3807 27.8153 74.5509 28.5047 74.5586 29.2055L69.2254 25.2682C69.1305 25.1866 69.0113 25.1389 68.8864 25.1324C68.7056 25.1324 68.5926 25.3134 68.4796 25.4492C67.3462 27.2131 66.0197 28.8449 64.5248 30.3143V23.6842C62.4527 23.5757 60.3909 23.3186 58.3555 22.9149C60.4647 21.7382 62.6116 20.6294 64.7961 19.5885C64.7961 17.2126 64.57 14.6103 64.5248 12.2344L68.1859 17.8235C70.9802 17.6727 73.7597 17.3173 76.5022 16.76C74.6768 18.4139 73.208 20.4236 72.1858 22.666Z" stroke="#F1EFED" stroke-width="1.1" stroke-linecap="round" stroke-linejoin="round"/>
<path d="M92.8409 12.5967C93.1121 14.2033 93.3607 15.8326 93.6319 17.4618C93.7899 18.1391 93.7899 18.8437 93.6319 19.521L89.3382 14.4975C89.259 14.3907 89.1483 14.3115 89.0217 14.2712C88.9343 14.2729 88.8484 14.2941 88.7702 14.3332C88.692 14.3724 88.6236 14.4285 88.5698 14.4975C87.0497 15.9483 85.3836 17.2374 83.5981 18.3443L85.1122 11.8274C83.1184 11.256 81.1695 10.5375 79.2817 9.67771C81.5416 9.02149 83.9597 8.43316 86.3099 7.91272C86.8071 5.6499 87.2139 3.02504 87.711 0.694336L89.9709 6.96233C92.7257 7.45354 95.5129 7.74094 98.3098 7.8222C96.174 9.01402 94.311 10.6404 92.8409 12.5967Z" stroke="#F1EFED" stroke-width="1.1" stroke-linecap="round" stroke-linejoin="round"/>
<path d="M88.3888 38.4606C88.0951 40.4066 87.8239 42.3526 87.5302 44.2986C86.6262 42.692 85.6092 40.7913 84.7505 39.1847L79.5754 42.3073C80.0726 40.5424 80.5923 38.4379 81.0669 36.6956C79.6432 35.5415 78.2195 34.4327 76.8184 33.1656L82.6488 33.0072C84.1178 31.129 85.3607 28.9341 86.9426 27.1465C87.5476 29.19 87.8745 31.306 87.9143 33.4371C89.9934 33.8444 92.0272 34.5459 94.1063 34.9532C94.1063 34.9532 94.3323 34.9532 94.3097 35.1116C94.2871 35.27 94.3097 35.1116 94.3097 35.2474C92.4717 36.5519 90.4838 37.6307 88.3888 38.4606Z" stroke="#F1EFED" stroke-width="1.1" stroke-linecap="round" stroke-linejoin="round"/>
<path d="M75.2819 52.4674L42.6269 47.1045C35.5242 63.0287 29.4257 79.3833 24.3672 96.0718C21.7458 104.716 19.3955 114.174 22.8531 122.615C24.8638 126.968 28.168 130.593 32.314 132.995C36.4601 135.396 41.2456 136.458 46.0167 136.033C50.7701 135.461 55.3011 133.691 59.186 130.89C63.071 128.088 66.1829 124.345 68.2312 120.012C70.5512 114.741 72.0233 109.135 72.5927 103.403C74.5181 86.4948 75.4162 69.4849 75.2819 52.4674Z" stroke="#F1EFED" stroke-width="1.1" stroke-linecap="round" stroke-linejoin="round"/>
<path d="M42.7397 136.848C38.5138 159.023 35.237 179.637 31.0111 199.89C29.2818 199.231 27.4352 198.938 25.5874 199.03C29.2484 178.28 33.5195 157.439 37.0675 136.191C38.9142 136.696 40.8267 136.917 42.7397 136.848Z" stroke="#F1EFED" stroke-width="1.1" stroke-linecap="round" stroke-linejoin="round"/>
<path d="M1 196.609C19.5309 198.691 38.024 201.195 56.4796 204.122" stroke="#F1EFED" stroke-width="1.1" stroke-linecap="round" stroke-linejoin="round"/>
<path d="M25.1807 92.9495C29.6558 89.9992 34.8354 88.2964 40.1862 88.0166C43.4594 88.1513 46.7378 87.9542 49.9714 87.4282C52.5645 86.5579 55.0878 85.4913 57.5194 84.2377C62.7764 82.0426 68.5971 81.5906 74.1293 82.9479" stroke="#F1EFED" stroke-width="0.76" stroke-miterlimit="10"/>
<path d="M66.7173 91.8633H66.8981" stroke="#F1EFED" stroke-width="0.76" stroke-linecap="round" stroke-linejoin="round"/>
<path d="M35.3726 119.424H35.6656" stroke="#F1EFED" stroke-width="0.76" stroke-linecap="round" stroke-linejoin="round"/>
<path d="M51.8921 100.801H52.0949" stroke="#F1EFED" stroke-width="0.76" stroke-linecap="round" stroke-linejoin="round"/>
<path d="M30.627 109.535H30.8078" stroke="#F1EFED" stroke-width="0.76" stroke-linecap="round" stroke-linejoin="round"/>
<path d="M60.5249 116.98H60.7057" stroke="#F1EFED" stroke-width="0.76" stroke-linecap="round" stroke-linejoin="round"/>
<path d="M37.6553 97H37.9257" stroke="#F1EFED" stroke-width="0.76" stroke-linecap="round" stroke-linejoin="round"/>
<path d="M60.0728 106.504H60.2536" stroke="#F1EFED" stroke-width="0.76" stroke-linecap="round" stroke-linejoin="round"/>
<path d="M49.8135 112.975H49.9942" stroke="#F1EFED" stroke-width="0.76" stroke-linecap="round" stroke-linejoin="round"/>
<path d="M79.892 52.4674L112.502 47.1045C119.604 63.0288 125.703 79.3833 130.761 96.0718C133.383 104.716 135.711 114.174 132.276 122.615C130.262 126.966 126.958 130.589 122.812 132.99C118.667 135.392 113.883 136.454 109.112 136.033C104.356 135.46 99.8221 133.691 95.9336 130.889C92.0451 128.088 88.9286 124.346 86.875 120.012C84.5878 114.734 83.1391 109.13 82.5812 103.403C80.6558 86.4948 79.7577 69.4849 79.892 52.4674Z" stroke="#F1EFED" stroke-width="1.1" stroke-linecap="round" stroke-linejoin="round"/>
<path d="M112.502 136.848C116.728 159.023 119.982 179.637 124.231 199.89C125.952 199.233 127.791 198.94 129.632 199.03C125.993 178.28 121.722 157.439 118.174 136.191C116.327 136.695 114.415 136.916 112.502 136.848Z" stroke="#F1EFED" stroke-width="1.1" stroke-linecap="round" stroke-linejoin="round"/>
<path d="M154.173 196.609C135.643 198.691 117.149 201.195 98.6938 204.122" stroke="#F1EFED" stroke-width="1.1" stroke-linecap="round" stroke-linejoin="round"/>
<path d="M81.1577 83.6259C88.1041 82.4527 95.2355 83.0997 101.858 85.5041C104.509 86.7413 107.339 87.5509 110.242 87.9027C112.4 87.8217 114.539 87.4798 116.615 86.8844C120.15 86.1428 123.765 85.8614 127.372 86.0471" stroke="#F1EFED" stroke-width="0.76" stroke-miterlimit="10"/>
<path d="M96.6826 96.0488H96.8634" stroke="#F1EFED" stroke-width="0.76" stroke-linecap="round" stroke-linejoin="round"/>
<path d="M115.349 97.9502H115.53" stroke="#F1EFED" stroke-width="0.76" stroke-linecap="round" stroke-linejoin="round"/>
<path d="M93.8804 106.504H94.0611" stroke="#F1EFED" stroke-width="0.76" stroke-linecap="round" stroke-linejoin="round"/>
<path d="M106.039 114.311H106.422" stroke="#F1EFED" stroke-width="0.76" stroke-linecap="round" stroke-linejoin="round"/>
<path d="M100.524 124.765H100.908" stroke="#F1EFED" stroke-width="0.76" stroke-linecap="round" stroke-linejoin="round"/>
</svg>
