<svg width="150" height="169" viewBox="0 0 150 169" fill="none" xmlns="http://www.w3.org/2000/svg">
<path d="M88.0752 19.8253C83.0131 21.0472 78.5386 29.5554 75.2166 33.4022C73.147 27.8589 69.6078 22.9852 64.9794 19.3049C64.78 19.1113 64.5398 18.965 64.2763 18.8769C64.0129 18.7887 63.7331 18.761 63.4576 18.7958C63.182 18.8306 62.9178 18.9269 62.6844 19.0777C62.4511 19.2285 62.2545 19.4298 62.1093 19.6669C59.3749 23.8305 61.5896 28.7182 63.3071 32.9496C65.5928 38.3622 68.6365 43.4213 72.3465 47.9747C72.5917 48.2169 72.8961 48.3904 73.2292 48.4777C73.5624 48.5651 73.9126 48.5633 74.2448 48.4726C82.9679 46.9338 92.4593 35.6424 92.8435 26.7948C93.0469 23.4911 91.8943 18.8976 88.0752 19.8253Z" fill="white"/>
<path d="M40.7985 3.646C40.7985 3.35183 40.7985 3.05766 40.7985 2.78612C40.7985 1.42843 38.855 0.297029 37.8381 1.54158C36.5308 3.02013 35.5283 4.74293 34.8884 6.61085C34.2484 8.47878 33.9837 10.455 34.1093 12.4257C32.4441 11.3761 30.8648 10.1957 29.3862 8.89573C28.0981 7.76432 25.8156 8.89572 26.1546 10.4797C24.4145 9.75559 22.8552 12.5162 24.3015 13.6929C27.0859 16.283 30.4488 18.1684 34.1093 19.1915C34.9907 19.8251 35.872 20.4813 36.7082 21.1828L37.0019 21.3638C37.1601 23.3099 40.1432 24.0566 40.5951 21.839C41.6815 16.4032 42.1515 10.8619 41.9962 5.32048C41.9968 4.95095 41.8815 4.59058 41.6666 4.29016C41.4517 3.98974 41.1481 3.76443 40.7985 3.646Z" fill="white"/>
<path d="M125.476 10.5706C125.407 10.311 125.309 10.0604 125.182 9.8239C124.927 9.38933 124.512 9.07235 124.026 8.94117C123.54 8.80998 123.022 8.87507 122.583 9.12243C120.323 10.5027 118.063 11.9736 115.804 13.4897C116.414 9.30345 117.069 2.06244 112.436 1.65513C111.639 1.57765 110.843 1.81253 110.215 2.31043C109.587 2.80833 109.176 3.53051 109.069 4.32526C108.738 7.70983 108.7 11.1168 108.956 14.5079C108.956 16.6123 108.301 19.735 110.289 21.1832C112.278 22.6314 114.086 21.1832 115.758 20.2102C118.018 18.8752 123.916 16.0693 125.227 12.7656C125.516 12.4848 125.698 12.1127 125.743 11.7126C125.789 11.3124 125.694 10.9089 125.476 10.5706Z" fill="white"/>
<path d="M75.2618 32.791C73.8822 27.6981 70.8933 23.1891 66.7421 19.9382C65.9439 19.2864 64.9472 18.9271 63.9173 18.9199C63.0847 19.056 62.3298 19.4902 61.793 20.1418C60.9795 21.1192 60.3965 22.2676 60.0874 23.5016C59.7783 24.7357 59.7511 26.0237 60.0077 27.2697C60.5575 29.7619 61.5281 32.1419 62.8777 34.3071C66.143 40.0839 69.9249 45.5521 74.1771 50.6446C82.4934 45.2365 90.9678 38.3801 93.2051 28.6953C93.7608 26.728 93.7135 24.6389 93.0695 22.6988C92.7142 21.7421 92.0714 20.9193 91.2295 20.3438C90.3876 19.7683 89.3882 19.4685 88.369 19.4856C87.2113 19.678 86.1265 20.1782 85.2278 20.9338C80.837 23.9041 77.4426 28.131 75.4877 33.0625" stroke="#F1EFED" stroke-width="1.1" stroke-linecap="round" stroke-linejoin="round"/>
<path d="M34.7424 13.4668C33.2534 11.7989 31.4967 10.3917 29.5448 9.30324C28.741 8.91915 27.8382 8.79343 26.9602 8.94333C26.0822 9.09322 25.2721 9.51138 24.6408 10.1405C24.0965 10.9514 23.8426 11.923 23.9205 12.897C23.9985 13.8709 24.4038 14.7897 25.0702 15.5034C26.4384 16.9031 28.108 17.9712 29.9515 18.626L40.1209 23.1517C42.2855 17.9649 43.0644 12.3032 42.3808 6.72363C42.3012 5.31787 41.8487 3.95877 41.07 2.78633C40.6637 2.21911 40.0884 1.79534 39.4266 1.57582C38.7648 1.3563 38.0506 1.35231 37.3864 1.56442C36.8421 1.90085 36.3754 2.34914 36.017 2.87965C35.6586 3.41015 35.4167 4.01078 35.3074 4.64184C34.4893 7.58657 34.3045 10.6716 34.765 13.6931" stroke="#F1EFED" stroke-width="1.1" stroke-linecap="round" stroke-linejoin="round"/>
<path d="M116.436 12.8328C117.837 11.1977 119.512 9.81941 121.386 8.75971C122.188 8.37605 123.088 8.24844 123.966 8.39414C124.843 8.53984 125.654 8.95181 126.289 9.57432C126.839 10.3862 127.097 11.3603 127.023 12.338C126.95 13.3158 126.547 14.2398 125.883 14.9598C124.519 16.3603 122.848 17.4219 121.001 18.0599L110.809 22.5855C108.643 17.3913 107.864 11.7219 108.55 6.13484C108.643 4.7389 109.095 3.3907 109.86 2.22017C110.262 1.64744 110.837 1.21937 111.5 0.999304C112.164 0.779238 112.88 0.77887 113.544 0.998251C114.094 1.32779 114.565 1.77415 114.925 2.30586C115.284 2.83758 115.522 3.44171 115.623 4.07568C116.48 7.05252 116.665 10.1828 116.165 13.2401" stroke="#F1EFED" stroke-width="1.1" stroke-linecap="round" stroke-linejoin="round"/>
<path d="M77.4765 87.7321C86.1844 95.6847 91.5069 106.684 92.3435 118.456C93.1801 130.227 89.4667 141.87 81.9712 150.978C74.4757 160.085 63.7715 165.959 52.0722 167.386C40.3728 168.813 28.5731 165.684 19.1133 158.645C9.65342 151.606 3.25696 141.196 1.24666 129.568C-0.763641 117.939 1.76598 105.982 8.3124 96.1687C14.8588 86.3553 24.9213 79.4364 36.419 76.8427C47.9167 74.249 59.9701 76.1789 70.0868 82.2334" stroke="#F1EFED" stroke-width="1.1" stroke-linecap="round" stroke-linejoin="round"/>
<path d="M72.1656 149.869C63.6657 142.247 58.2907 131.74 57.0801 120.379C55.8696 109.018 58.9095 97.6119 65.612 88.3657C77.0243 72.0961 90.4705 69.2676 102.968 69.2676C110.1 69.2699 117.135 70.9276 123.52 74.1106C129.905 77.2937 135.466 81.9154 139.767 87.6128C144.067 93.3103 146.99 99.9284 148.307 106.948C149.623 113.967 149.296 121.196 147.352 128.067C145.408 134.939 141.9 141.265 137.103 146.551C132.306 151.836 126.351 155.936 119.705 158.529C113.059 161.121 105.904 162.136 98.8002 161.493C91.6966 160.851 84.8385 158.568 78.7644 154.825" stroke="#F1EFED" stroke-width="1.1" stroke-linecap="round" stroke-linejoin="round"/>
<path d="M73.1374 93.7066L72.708 93.5029C67.3023 100.994 64.8541 110.223 65.8345 119.413C66.8148 128.603 71.1546 137.106 78.0187 143.285" stroke="#F1EFED" stroke-width="1.1" stroke-linecap="round" stroke-linejoin="round"/>
<path d="M72.7759 93.6607C79.3482 99.7991 83.5752 108.042 84.7278 116.967C85.8804 125.892 83.8865 134.94 79.0898 142.55C74.2932 150.161 66.9945 155.857 58.4526 158.655C49.9108 161.454 40.6612 161.181 32.2992 157.882C23.9372 154.583 16.9871 148.466 12.6474 140.585C8.30771 132.704 6.8506 123.554 8.52735 114.713C10.2041 105.871 14.9096 97.8932 21.8323 92.1539C28.755 86.4147 37.4609 83.2743 46.4485 83.2744C53.0609 83.1919 59.5753 84.8793 65.3183 88.162" stroke="#F1EFED" stroke-width="1.1" stroke-linecap="round" stroke-linejoin="round"/>
<path d="M72.708 93.5022C73.986 91.4136 75.5967 89.5485 77.4763 87.9809C80.8596 84.7216 84.8542 82.1657 89.2295 80.4607C93.6047 78.7557 98.274 77.9354 102.968 78.0472C112.881 78.0472 122.388 81.9904 129.398 89.0093C136.408 96.0282 140.346 105.548 140.346 115.474C140.346 125.4 136.408 134.92 129.398 141.939C122.388 148.958 112.881 152.901 102.968 152.901C96.4677 153.128 90.0477 151.411 84.5271 147.968" stroke="#F1EFED" stroke-width="1.1" stroke-linecap="round" stroke-linejoin="round"/>
<path d="M27.9176 78.9981C22.9459 75.8754 18.6974 72.9564 13.9517 69.5395C15.7543 63.003 17.1879 56.37 18.2454 49.672C22.7651 48.1785 26.7877 46.8887 31.3526 45.6895C35.6237 49.2194 40.392 52.0253 44.5954 55.5553C45.1378 56.0079 44.5954 56.6641 44.5954 57.3882C43.8948 63.3847 43.0587 69.3811 42.0869 75.3323" stroke="#F1EFED" stroke-width="1.1" stroke-linecap="round" stroke-linejoin="round"/>
<path d="M13.8838 68.7694C23.7407 64.5119 33.828 60.8102 44.0981 57.6816" stroke="#F1EFED" stroke-width="1.1" stroke-linecap="round" stroke-linejoin="round"/>
<path d="M31.0814 46.1875C31.3978 51.0978 31.0814 55.3972 31.4881 60.3301L18.7651 49.7175" stroke="#F1EFED" stroke-width="1.1" stroke-linecap="round" stroke-linejoin="round"/>
<path d="M27.7593 78.4551L31.5559 61.8008C34.6745 66.4848 37.7027 70.852 41.2281 75.3777" stroke="#F1EFED" stroke-width="1.1" stroke-linecap="round" stroke-linejoin="round"/>
</svg>
