<svg width="186" height="162" viewBox="0 0 186 162" fill="none" xmlns="http://www.w3.org/2000/svg">
<path d="M161.67 159.23C164.427 110.33 176.563 67.3141 185.173 19.1161C146.936 12.1466 111.072 7.621 72.8124 0.628906C60.3605 52.3569 50.0556 86.6159 41.8975 139.068C83.9309 143.797 119.637 152.939 161.67 159.23Z" fill="white" stroke="#F1EFED" stroke-linecap="round" stroke-linejoin="round"/>
<path d="M152.134 142.055C157.332 107.887 164.021 68.5136 167.343 34.1188C139.32 28.2581 113.106 21.3565 84.5188 18.5732C78.146 50.4789 68.293 96.2783 63.1179 128.41C92.7899 131.51 122.372 138.344 152.134 142.055Z" fill="#222627" stroke="#F1EFED" stroke-linecap="round" stroke-linejoin="round"/>
<path d="M137.196 145.653C125.783 98.1337 120.518 56.2716 114.936 7.62109C76.2699 11.8526 40.0217 15.7672 1.35547 20.0213C4.27069 73.1522 9.37799 108.045 16.6547 160.746C58.2814 153.143 95.0945 151.627 137.196 145.653Z" fill="white" stroke="#F1EFED" stroke-linecap="round" stroke-linejoin="round"/>
<path d="M117.897 132.597C113.084 98.3833 108.202 58.7614 101.423 24.8418C72.9032 27.2856 45.717 28.2586 17.627 33.8931C20.6778 66.2966 24.4066 113.092 28.6551 145.269C58.0333 139.589 88.3381 137.621 117.897 132.597Z" fill="#222627" stroke="#F1EFED" stroke-linecap="round" stroke-linejoin="round"/>
<path d="M39.3896 85.1911C37.0467 87.0146 34.9834 89.1722 33.2653 91.5949C31.5627 94.4838 30.7962 97.8303 31.0714 101.173C31.3466 104.517 32.65 107.692 34.8021 110.263C37.0337 112.729 39.907 114.524 43.1001 115.448C46.2932 116.371 49.68 116.386 52.881 115.49C56.0761 114.489 58.9691 112.7 61.2947 110.289C63.6203 107.877 65.304 104.919 66.1915 101.687C66.7285 99.9147 66.8977 98.0512 66.6887 96.211C66.3556 94.1831 65.5843 92.2525 64.4289 90.554C62.1051 86.9351 58.6355 84.2019 54.5759 82.7925C50.2595 81.3896 43.0054 82.091 39.3896 85.1911Z" stroke="#F1EFED" stroke-width="0.62" stroke-linecap="round" stroke-linejoin="round"/>
<path d="M31.0278 98.6098C30.8696 96.1207 27.977 96.347 26.5081 97.1164C25.7957 97.6331 25.2182 98.3143 24.8248 99.1022C24.4314 99.89 24.2336 100.761 24.2482 101.642C24.1492 102.43 24.2211 103.23 24.459 103.988C24.6969 104.745 25.0952 105.442 25.6268 106.032C26.1263 106.507 26.7464 106.837 27.4196 106.984C28.0929 107.132 28.7936 107.092 29.4459 106.869C30.7566 106.417 31.9543 105.851 31.7058 103.995" stroke="#F1EFED" stroke-width="0.62" stroke-linecap="round" stroke-linejoin="round"/>
<path d="M65.2646 91.9793C64.7448 89.5354 68.2024 88.9245 69.9199 89.377C71.4576 90.0532 72.668 91.308 73.2896 92.8703C73.9112 94.4326 73.894 96.1771 73.2419 97.7268C72.8842 98.3161 72.3739 98.7976 71.7653 99.1202C71.1566 99.4429 70.4721 99.5947 69.7843 99.5597C68.4058 99.5597 67.0951 99.2655 66.8239 97.4327" stroke="#F1EFED" stroke-width="0.62" stroke-linecap="round" stroke-linejoin="round"/>
<path d="M41.7393 102.343C44.346 103.299 47.143 103.617 49.8974 103.271C51.2712 103.063 52.542 102.418 53.5225 101.432C54.503 100.447 55.1414 99.1714 55.3436 97.7949" stroke="#F1EFED" stroke-width="0.62" stroke-linecap="round" stroke-linejoin="round"/>
<path d="M42.9152 97.3416C42.9152 97.6773 42.8158 98.0054 42.6295 98.2845C42.4433 98.5636 42.1786 98.7811 41.8689 98.9096C41.5592 99.038 41.2184 99.0716 40.8896 99.0061C40.5609 98.9407 40.2589 98.779 40.0218 98.5417C39.7848 98.3043 39.6234 98.0019 39.558 97.6727C39.4926 97.3435 39.5261 97.0023 39.6544 96.6922C39.7827 96.3821 40 96.117 40.2787 95.9305C40.5574 95.7441 40.8851 95.6445 41.2203 95.6445C41.6698 95.6445 42.1009 95.8233 42.4188 96.1416C42.7366 96.4599 42.9152 96.8915 42.9152 97.3416Z" fill="#F1EFED"/>
<path d="M53.966 94.1063C53.966 94.4419 53.8666 94.7701 53.6803 95.0492C53.4941 95.3282 53.2294 95.5458 52.9197 95.6742C52.61 95.8027 52.2692 95.8363 51.9404 95.7708C51.6117 95.7053 51.3096 95.5437 51.0726 95.3063C50.8356 95.069 50.6741 94.7666 50.6087 94.4374C50.5433 94.1082 50.5769 93.7669 50.7052 93.4568C50.8335 93.1467 51.0507 92.8817 51.3295 92.6952C51.6082 92.5087 51.9359 92.4092 52.2711 92.4092C52.7206 92.4092 53.1517 92.588 53.4696 92.9062C53.7874 93.2245 53.966 93.6562 53.966 94.1063Z" fill="#F1EFED"/>
<path d="M58.8017 83.109C58.0785 81.0498 57.3554 79.0133 56.5418 76.9541C47.6681 80.3785 38.8622 83.9764 30.124 87.7477C30.6438 88.8113 30.6212 89.6485 31.141 90.6894C31.2093 90.9428 31.3707 91.1611 31.593 91.3004C31.884 91.4118 32.2058 91.4118 32.4969 91.3004L43.7962 87.9061C48.9144 86.698 53.9312 85.0941 58.8017 83.109Z" fill="#222627" stroke="#F1EFED" stroke-width="0.75" stroke-linecap="round" stroke-linejoin="round"/>
<path d="M38.3954 83.991C36.9482 78.6378 34.9645 73.4447 32.4746 68.4908L46.8925 64.1914C48.384 68.9433 49.9433 73.6726 51.4122 78.4019" fill="#222627"/>
<path d="M38.3954 83.991C36.9482 78.6378 34.9645 73.4447 32.4746 68.4908L46.8925 64.1914C48.384 68.9433 49.9433 73.6726 51.4122 78.4019" stroke="#F1EFED" stroke-width="0.75" stroke-linecap="round" stroke-linejoin="round"/>
<path d="M37.5364 80.5969C41.9088 78.8625 46.3665 77.352 50.8922 76.0713L37.5364 80.5969Z" fill="#FFE9DA"/>
<path d="M37.5364 80.5969C41.9088 78.8625 46.3665 77.352 50.8922 76.0713" stroke="#F1EFED" stroke-width="0.75" stroke-linecap="round" stroke-linejoin="round"/>
<path d="M48.429 86.8203C50.4958 88.7809 53.1635 89.985 55.9995 90.2372" stroke="#F1EFED" stroke-width="0.62" stroke-linecap="round" stroke-linejoin="round"/>
<path d="M53.6719 85.0322C53.9268 85.5839 54.2999 86.0727 54.7646 86.4637C55.2294 86.8548 55.7745 87.1386 56.3611 87.295C57.5216 87.5767 58.7163 87.691 59.9091 87.6345" stroke="#F1EFED" stroke-width="0.62" stroke-linecap="round" stroke-linejoin="round"/>
<path d="M38.1465 89.5586C38.1235 90.8922 37.7419 92.195 37.042 93.3298C36.3421 94.4647 35.3497 95.3897 34.1692 96.0076" stroke="#F1EFED" stroke-width="0.62" stroke-linecap="round" stroke-linejoin="round"/>
<path d="M38.1465 143.209C38.785 138.225 39.8743 133.31 41.4007 128.524C42.9123 123.769 45.6945 119.52 49.4458 116.237C51.8638 114.29 55.7734 115.49 58.4852 117.096C60.6794 118.622 62.5085 120.616 63.8411 122.934C67.1923 127.993 70.1755 133.287 72.7676 138.774" stroke="#F1EFED" stroke-width="0.62" stroke-linecap="round" stroke-linejoin="round"/>
<path d="M43.9092 111.711C44.1168 115.064 45.0335 118.334 46.5984 121.305C49.4091 117.139 52.7264 113.338 56.474 109.991C57.6082 113.323 58.4624 116.745 59.0277 120.219C56.3384 118.726 53.8752 116.689 51.1181 115.377C48.609 114.376 46.1961 113.149 43.9092 111.711Z" fill="#FFE9DA" stroke="#F1EFED" stroke-width="0.75" stroke-linecap="round" stroke-linejoin="round"/>
<path d="M93.0608 81.1861C95.6636 82.0141 98.1251 83.235 100.36 84.8066C102.747 86.7745 104.464 89.4364 105.273 92.4241C106.083 95.4118 105.946 98.5776 104.88 101.484C103.712 104.337 101.77 106.807 99.2747 108.615C96.7789 110.422 93.8282 111.495 90.7557 111.711C87.6802 111.835 84.6225 111.188 81.86 109.829C79.0975 108.47 76.7178 106.441 74.9367 103.927C73.929 102.576 73.1992 101.038 72.7898 99.4017C72.4547 97.5208 72.5396 95.5889 73.0384 93.7447C73.9244 89.8826 76.0716 86.4267 79.1401 83.9241C82.4169 81.2992 88.9478 79.6247 93.0608 81.1861Z" fill="#222627" stroke="#F1EFED" stroke-width="0.69" stroke-linecap="round" stroke-linejoin="round"/>
<path d="M104.518 90.169C103.863 87.9062 106.417 87.1595 108.021 87.4536C108.808 87.6763 109.53 88.0842 110.128 88.6431C110.725 89.202 111.181 89.8959 111.456 90.6668C111.78 91.3244 111.963 92.0423 111.995 92.7748C112.026 93.5073 111.904 94.2382 111.637 94.9209C111.345 95.4886 110.905 95.9668 110.364 96.3052C109.823 96.6437 109.201 96.8299 108.564 96.8443C107.298 96.8443 106.078 96.8443 105.716 95.0793" stroke="#F1EFED" stroke-width="0.57" stroke-linecap="round" stroke-linejoin="round"/>
<path d="M93.8071 92.8386C93.9113 93.1349 94.1011 93.3934 94.3524 93.5814C94.6036 93.7694 94.9051 93.8783 95.2183 93.8944C95.5316 93.9104 95.8425 93.8329 96.1116 93.6716C96.3807 93.5103 96.596 93.2725 96.7298 92.9885C96.8637 92.7044 96.9102 92.387 96.8634 92.0764C96.8167 91.7659 96.6788 91.4762 96.4673 91.2443C96.2557 91.0124 95.9801 90.8487 95.6755 90.774C95.3708 90.6993 95.0508 90.7169 94.7562 90.8247C94.5608 90.8931 94.3809 90.9997 94.2271 91.1384C94.0732 91.277 93.9484 91.445 93.8601 91.6325C93.7717 91.8199 93.7215 92.0231 93.7124 92.2302C93.7033 92.4373 93.7356 92.6441 93.8071 92.8386Z" fill="#F1EFED"/>
<path d="M83.344 93.4727C83.4145 93.6664 83.5226 93.8442 83.6621 93.9958C83.8016 94.1475 83.9697 94.2699 84.1567 94.3562C84.3436 94.4424 84.5458 94.4908 84.7516 94.4984C84.9573 94.506 85.1625 94.4727 85.3554 94.4005C85.5479 94.3323 85.725 94.2264 85.8762 94.0888C86.0275 93.9513 86.1498 93.785 86.236 93.5996C86.3223 93.4142 86.3708 93.2134 86.3787 93.009C86.3865 92.8046 86.3536 92.6007 86.2818 92.4092C86.141 92.0191 85.8512 91.701 85.4761 91.5249C85.101 91.3488 84.6715 91.3291 84.2819 91.4701C83.8923 91.6112 83.5746 91.9014 83.3987 92.2769C83.2228 92.6525 83.2032 93.0826 83.344 93.4727Z" fill="#F1EFED"/>
<path d="M84.3154 96.9802C84.8557 97.9113 85.6042 98.7045 86.5021 99.2973C87.4 99.8901 88.4229 100.267 89.4905 100.397C90.4642 100.365 91.3974 99.9996 92.1338 99.3611C92.8703 98.7226 93.3652 97.85 93.5357 96.8896" stroke="#F1EFED" stroke-width="0.57" stroke-linecap="round" stroke-linejoin="round"/>
<path d="M83.8411 92.2055C83.5024 91.5652 82.9839 91.0382 82.3496 90.6895C82.3722 91.3457 83.5925 91.5041 83.8411 92.2055Z" stroke="#F1EFED" stroke-width="0.57" stroke-linecap="round" stroke-linejoin="round"/>
<path d="M96.1123 91.3459C96.4604 90.9143 96.8811 90.5468 97.3553 90.2598" stroke="#F1EFED" stroke-width="0.57" stroke-linecap="round" stroke-linejoin="round"/>
<path d="M110.959 132.756C109.069 128.531 106.8 124.487 104.18 120.672C101.515 116.852 97.8469 113.845 93.581 111.983C90.937 110.919 87.7958 113.024 85.8975 115.174C84.3847 117.114 83.3127 119.361 82.7563 121.758C81.1531 127.13 79.9521 132.614 79.1631 138.164" stroke="#F1EFED" stroke-width="0.57" stroke-linecap="round" stroke-linejoin="round"/>
<path d="M81.084 128.343C81.5382 127.174 82.2868 126.143 83.2571 125.35C84.2273 124.556 85.3861 124.028 86.6207 123.817C88.2004 123.666 89.7778 124.127 91.0274 125.107C92.2661 126.076 93.3818 127.193 94.3494 128.433C94.6665 126.655 95.3267 124.957 96.2929 123.432C97.3192 121.944 98.8832 120.913 100.654 120.558C102.259 120.219 104.225 121.961 105.694 123.523" fill="#FFE9DA"/>
<path d="M81.084 128.343C81.5382 127.174 82.2868 126.143 83.2571 125.35C84.2273 124.556 85.3861 124.028 86.6207 123.817C88.2004 123.666 89.7778 124.127 91.0274 125.107C92.2661 126.076 93.3818 127.193 94.3494 128.433C94.6665 126.655 95.3267 124.957 96.2929 123.432C97.3192 121.944 98.8832 120.913 100.654 120.558C102.259 120.219 104.225 121.961 105.694 123.523" stroke="#F1EFED" stroke-width="0.69" stroke-linecap="round" stroke-linejoin="round"/>
<path d="M86.0107 81.9102C87.1932 83.5397 88.7065 84.9003 90.4514 85.9026C92.1963 86.9048 94.1332 87.5261 96.1349 87.7256C97.0138 87.9408 97.9293 87.9591 98.8161 87.7792C99.7028 87.5993 100.539 87.2255 101.265 86.6847" fill="#FFE9DA"/>
<path d="M86.0107 81.9102C87.1932 83.5397 88.7065 84.9003 90.4514 85.9026C92.1963 86.9048 94.1332 87.5261 96.1349 87.7256C97.0138 87.9408 97.9293 87.9591 98.8161 87.7792C99.7028 87.5993 100.539 87.2255 101.265 86.6847" stroke="#F1EFED" stroke-width="0.69" stroke-linecap="round" stroke-linejoin="round"/>
<path d="M81.83 79.1711C80.7526 77.948 80.0823 76.4194 79.9121 74.7974C79.7419 73.1754 80.0803 71.5407 80.8803 70.1201C81.6804 68.6995 82.9024 67.5636 84.3766 66.8702C85.8508 66.1767 87.504 65.9601 89.1068 66.2504C90.971 66.6791 92.6434 67.7079 93.8679 69.1792C95.0924 70.6505 95.8014 72.4832 95.8864 74.3965C95.9743 75.2998 95.8483 76.2111 95.5185 77.0565C95.1887 77.9018 94.6643 78.6573 93.9881 79.2616" stroke="#F1EFED" stroke-width="0.69" stroke-linecap="round" stroke-linejoin="round"/>
<path d="M77.5814 81.6609C77.2142 81.7052 76.8417 81.6585 76.4967 81.5251C76.3233 81.4452 76.1797 81.3124 76.0863 81.1457C75.993 80.9791 75.9546 80.7871 75.9769 80.5973C76.1036 80.348 76.3107 80.1487 76.5645 80.0316C77.566 79.4855 78.7043 79.2419 79.8413 79.3301C79.0418 78.6876 78.4388 77.8329 78.1011 76.8637C77.9478 76.4009 77.9478 75.9009 78.1011 75.4381C78.16 75.2044 78.2933 74.9962 78.4809 74.8451C78.6684 74.6941 78.9001 74.6083 79.1407 74.6009C79.3584 74.6335 79.567 74.7106 79.7536 74.8274C79.9402 74.9442 80.1008 75.0981 80.2254 75.2797C80.9867 76.1574 81.6533 77.1131 82.2141 78.1309C82.1282 77.0343 82.3976 75.9392 82.9825 75.0082C83.6378 74.1483 85.2423 73.922 85.7395 74.8272C85.8998 75.1555 85.9657 75.522 85.9298 75.8856C85.8938 76.2493 85.7576 76.5958 85.5361 76.8863C85.1293 77.4973 84.5418 77.9725 84.135 78.5608C85.3587 78.9051 86.3979 79.718 87.0276 80.8236C87.1596 81.0379 87.2295 81.2847 87.2295 81.5364C87.2295 81.7881 87.1596 82.0349 87.0276 82.2492C86.8938 82.3933 86.7211 82.4955 86.5305 82.5433C85.8745 82.6824 85.1919 82.6208 84.5714 82.3666C83.9508 82.1124 83.4208 81.6773 83.0503 81.1178C83.0884 81.9854 82.8765 82.8457 82.4397 83.596C82.0029 84.3463 81.3598 84.9549 80.587 85.3492C80.5161 85.3818 80.439 85.3986 80.361 85.3986C80.283 85.3986 80.2059 85.3818 80.135 85.3492C79.9994 85.3492 79.9543 85.123 79.9091 84.9646C79.7873 84.3673 79.7873 83.7516 79.9091 83.1543C79.9091 82.7017 80.4288 82.0229 80.3158 81.5477C80.0673 80.5747 78.3724 81.5703 77.5814 81.6609Z" fill="#222627" stroke="#F1EFED" stroke-width="0.69" stroke-linecap="round" stroke-linejoin="round"/>
<path d="M89.5811 78.7423C89.2295 78.6034 88.924 78.3682 88.6997 78.0634C88.5824 77.9154 88.5186 77.732 88.5186 77.543C88.5186 77.354 88.5824 77.1706 88.6997 77.0225C88.8264 76.9239 88.9722 76.8528 89.1279 76.8139C89.2835 76.7749 89.4456 76.7689 89.6037 76.7963C90.7303 76.8452 91.8198 77.2141 92.7449 77.8598C92.3996 76.9033 92.3214 75.8706 92.5189 74.8729C92.5932 74.3883 92.8141 73.9381 93.1517 73.5831C93.3241 73.405 93.5502 73.2886 93.7952 73.2518C94.0402 73.215 94.2905 73.2598 94.5076 73.3794C94.8341 73.6793 95.0358 74.0913 95.0726 74.5334C95.2788 75.6753 95.3621 76.8359 95.3211 77.9956C95.8119 77.0177 96.6044 76.2242 97.581 75.7327C98.5979 75.3481 100.044 75.9138 100.067 76.9999C100.033 77.3636 99.899 77.7107 99.6795 78.0024C99.4599 78.2942 99.1638 78.519 98.8239 78.6518C98.1686 78.9686 97.4228 79.0817 96.7675 79.3985C97.2017 79.8523 97.5413 80.3881 97.7663 80.9748C97.9914 81.5615 98.0974 82.1872 98.0781 82.8154C98.0781 83.3132 97.8974 83.9015 97.4228 84.0599C97.2296 84.1052 97.0285 84.1052 96.8352 84.0599C96.2022 83.8336 95.65 83.425 95.2479 82.8856C94.8459 82.3461 94.6119 81.6998 94.5754 81.0277C94.1657 81.7919 93.5453 82.4222 92.7881 82.8434C92.0308 83.2647 91.1687 83.4591 90.3042 83.4037C90.2216 83.4064 90.1396 83.3893 90.065 83.3539C89.9903 83.3184 89.9252 83.2657 89.8749 83.2C89.8184 83.0623 89.8184 82.9078 89.8749 82.7701C90.0644 82.1972 90.3638 81.6668 90.7562 81.2088C91.0726 80.8467 91.7957 80.4847 91.9539 80.0321C92.3833 79.1043 90.2817 79.0817 89.5811 78.7423Z" fill="#222627" stroke="#F1EFED" stroke-width="0.69" stroke-linecap="round" stroke-linejoin="round"/>
<path d="M82.5305 78.5831C82.172 78.4565 81.8632 78.2187 81.6491 77.9042C81.5389 77.7531 81.4795 77.5709 81.4795 77.3838C81.4795 77.1967 81.5389 77.0144 81.6491 76.8633C81.9075 76.6676 82.231 76.5785 82.553 76.6144C83.6878 76.6755 84.7833 77.0516 85.7168 77.7006C85.3602 76.7387 85.2819 75.6955 85.4909 74.691C85.5562 74.2037 85.7784 73.7509 86.1236 73.4012C86.2971 73.2319 86.5203 73.1229 86.7604 73.0903C87.0005 73.0577 87.2447 73.1033 87.4569 73.2202C87.6264 73.3624 87.7643 73.5385 87.8616 73.7373C87.9589 73.9361 88.0135 74.153 88.0219 74.3742C88.2392 75.4921 88.3377 76.6299 88.3157 77.7685C88.7997 76.7857 89.5941 75.9903 90.5756 75.5057C91.5925 75.0983 93.0162 75.6867 93.0388 76.7728C93.0076 77.1373 92.8744 77.4856 92.6546 77.7778C92.4348 78.07 92.1371 78.2942 91.7958 78.4247C91.1405 78.7415 90.4173 78.8546 89.7394 79.1488C90.1746 79.6018 90.5149 80.1376 90.74 80.7244C90.9652 81.3113 91.0706 81.9373 91.0501 82.5656C91.0768 82.8153 91.0313 83.0674 90.9191 83.2921C90.807 83.5167 90.6328 83.7043 90.4174 83.8328C90.2256 83.8894 90.0215 83.8894 89.8298 83.8328C89.1985 83.6105 88.647 83.2061 88.2449 82.6706C87.8427 82.135 87.6079 81.4922 87.5699 80.8233C87.1698 81.5886 86.5592 82.2233 85.8104 82.6524C85.0615 83.0814 84.2057 83.2869 83.344 83.2445C83.1858 83.2445 82.9824 83.2445 82.9146 83.0408C82.8468 82.8372 82.9146 82.7467 82.9146 82.6109C83.1041 82.0312 83.4034 81.4934 83.796 81.0269C84.1124 80.6875 84.8355 80.3255 84.9711 79.8729C85.1971 78.9225 83.344 78.9225 82.5305 78.5831Z" fill="#222627" stroke="#F1EFED" stroke-width="0.69" stroke-linecap="round" stroke-linejoin="round"/>
</svg>
