<svg width="81" height="174" viewBox="0 0 81 174" fill="none" xmlns="http://www.w3.org/2000/svg">
<path d="M23.5168 66.8299C4.53392 65.2233 7.22316 38.9973 6.5 8.78872C10.387 8.63032 12.918 8.78872 14.0253 8.78872C14.6581 18.7677 15.7654 39.9477 16.9632 43.5229C18.1609 47.0982 22.4094 44.9485 22.1834 41.3733C21.9575 37.798 21.3021 8.35878 21.3021 8.35878H26.6806C26.6806 8.35878 29.302 39.2688 29.5506 40.6944C29.7765 44.0434 34.8387 45.469 34.6127 40.6944C34.3867 35.9199 34.6127 8.04199 34.6127 8.04199L41.8895 8.20039C48.1945 65.3138 40.1493 65.1102 32.2398 66.2416C32.2398 74.9534 38.251 145.825 39.5166 166.439C39.9911 174.2 30.0251 175.309 28.9178 166.597C28.4432 162.932 23.5168 66.8299 23.5168 66.8299Z" stroke="#F1EFED" stroke-miterlimit="10"/>
<path d="M44.5781 167.91C48.505 168.705 52.5043 169.084 56.5102 169.042C58.7701 143.042 59.3124 118.807 60.2615 92.7171L60.5553 88.1915C65.7826 75.7483 68.9869 62.5475 70.0467 49.0901C71.0286 35.4411 68.6543 21.7591 63.1316 9.24189C61.3689 5.23671 58.6118 0.665825 53.3012 1.57095C51.3803 5.62139 53.6853 57.8698 51.3803 85.9061C51.3803 85.9513 46.7476 140.734 44.5781 167.91Z" stroke="#F1EFED" stroke-miterlimit="10"/>
<path d="M23.1328 101.089L61.5957 102.854L60.7143 139.851L25.5509 140.281L23.1328 101.089Z" fill="#222627" stroke="#F1EFED" stroke-miterlimit="10"/>
<path d="M62.4083 96.8797C64.213 96.1123 66.1536 95.7168 68.1144 95.7168C70.0751 95.7168 72.0158 96.1123 73.8205 96.8797C75.8608 98.0469 77.4969 99.8094 78.5105 101.932C79.524 104.055 79.8667 106.437 79.4928 108.759C79.0532 111.07 78.1211 113.259 76.76 115.176C75.399 117.094 73.641 118.695 71.6059 119.87C67.5055 122.191 62.8917 123.451 58.1823 123.536C52.8337 123.801 47.4799 123.127 42.3633 121.544C50.1146 120.571 58.4309 119.282 64.0805 113.964C65.5707 112.735 66.5267 110.974 66.7472 109.054C66.6866 107.75 66.1865 106.506 65.3287 105.524C64.4709 104.542 63.3061 103.879 62.0241 103.646C60.7367 103.458 59.4248 103.527 58.1642 103.849C56.9036 104.171 55.7193 104.741 54.6796 105.524C52.6091 107.102 50.7149 108.901 49.0299 110.887C47.8774 112.108 42.0469 119.123 40.4198 118.286C38.7927 117.449 44.1486 111.497 45.1203 110.253C49.5896 104.332 55.5582 99.7149 62.4083 96.8797Z" fill="#222627" stroke="#F1EFED" stroke-linecap="round" stroke-linejoin="round"/>
<path d="M17.6633 97.1293C15.8337 96.4253 13.8824 96.0928 11.9231 96.1511C9.96388 96.2093 8.03573 96.6572 6.251 97.4688C4.25481 98.7113 2.68394 100.533 1.74735 102.692C0.810755 104.85 0.552926 107.243 1.00817 109.552C1.52418 111.847 2.53076 114.002 3.95866 115.869C5.38655 117.736 7.20174 119.271 9.27921 120.368C13.4591 122.557 18.1226 123.654 22.8384 123.559C28.1664 123.637 33.467 122.779 38.4993 121.025C30.748 120.323 22.3864 119.395 16.556 114.236C15.0197 113.069 13.9984 111.348 13.7086 109.439C13.7188 108.133 14.1714 106.868 14.9925 105.853C15.8135 104.838 16.9543 104.132 18.2283 103.85C19.5086 103.617 20.8223 103.638 22.0942 103.914C23.3661 104.19 24.5713 104.714 25.6407 105.457C27.7638 106.961 29.7186 108.691 31.4711 110.616C32.6688 111.792 38.7478 118.626 40.3523 117.721C41.9568 116.816 36.375 110.933 35.358 109.869C30.6951 104.124 24.5873 99.7261 17.6633 97.1293Z" fill="#222627" stroke="#F1EFED" stroke-linecap="round" stroke-linejoin="round"/>
<path d="M28.5563 135.484C28.1394 137.094 28.0472 138.771 28.2851 140.417C28.8431 142.568 29.6628 144.643 30.7258 146.594C32.6049 150.856 33.232 155.565 32.5336 160.171C32.9031 158.896 33.4754 157.689 34.2285 156.596C35.2039 157.501 35.9745 158.604 36.4884 159.832C38.2285 153.043 32.7145 145.915 34.0478 138.969C34.9713 135.784 36.4644 132.794 38.4545 130.144C40.085 127.947 41.0358 125.319 41.189 122.586C40.8274 118.965 38.5449 121.59 36.6692 123.016C32.6656 126.162 29.8133 130.546 28.5563 135.484Z" fill="#222627" stroke="#F1EFED" stroke-linecap="round" stroke-linejoin="round"/>
<path d="M45.0307 134.579C44.6692 137.905 43.2906 141.096 43.1776 144.445C42.9969 149.559 45.7765 154.288 48.7143 158.497C48.3668 156.877 48.2753 155.212 48.4432 153.564C49.8638 154.564 51.2084 155.668 52.4657 156.868C51.9233 153.632 49.5279 150.984 48.6239 147.816C47.72 144.648 48.4431 141.028 48.6239 137.498C48.8951 131.977 47.5844 123.468 43.3132 119.554C41.5957 120.911 43.5618 124.079 44.0364 125.731C44.9427 128.587 45.2806 131.593 45.0307 134.579Z" fill="#222627" stroke="#F1EFED" stroke-linecap="round" stroke-linejoin="round"/>
<path d="M39.1096 115.276C38.5676 117.773 38.3174 120.325 38.3639 122.879C40.78 122.308 43.2348 121.914 45.7084 121.703C44.685 119.218 43.9275 116.631 43.4486 113.986C41.8101 113.939 40.1859 114.305 38.7254 115.05" fill="white"/>
<path d="M39.1096 115.276C38.5676 117.773 38.3174 120.325 38.3639 122.879C40.78 122.308 43.2348 121.914 45.7084 121.703C44.685 119.218 43.9275 116.631 43.4486 113.986C41.8101 113.939 40.1859 114.305 38.7254 115.05" stroke="#F1EFED" stroke-linecap="round" stroke-linejoin="round"/>
</svg>
