<svg width="145" height="167" viewBox="0 0 145 167" fill="none" xmlns="http://www.w3.org/2000/svg">
<path d="M140.796 139.221H4.06334C2.40597 139.221 1.08008 137.586 1.08008 135.542C1.08008 133.498 2.40597 131.862 4.06334 131.862H140.796C142.454 131.862 143.78 133.498 143.78 135.542C143.945 137.586 142.454 139.221 140.796 139.221Z" fill="#222627" stroke="white" stroke-miterlimit="10" stroke-linecap="round" stroke-linejoin="round"/>
<path d="M89.9148 166H54.9443C53.6184 166 52.624 164.774 52.624 163.138C52.624 161.503 53.6184 160.276 54.9443 160.276H89.9148C91.2407 160.276 92.2352 161.503 92.2352 163.138C92.4009 164.569 91.2407 166 89.9148 166Z" fill="#222627" stroke="white" stroke-miterlimit="10" stroke-linecap="round" stroke-linejoin="round"/>
<path d="M77.9822 160.073H67.0435L65.0547 139.222H79.971L77.9822 160.073Z" fill="#222627" stroke="white" stroke-miterlimit="10" stroke-linecap="round" stroke-linejoin="round"/>
<path d="M31.0785 89.9567C36.2163 89.9567 36.2163 94.6584 41.3542 94.6584C46.492 94.6584 46.492 89.9567 51.7956 89.9567C56.9334 89.9567 56.9334 94.6584 62.237 94.6584C67.3749 94.6584 67.3749 89.9567 72.6785 89.9567C77.8163 89.9567 77.8163 94.6584 83.1199 94.6584C88.2577 94.6584 88.2577 89.9567 93.5613 89.9567C98.6992 89.9567 98.6992 94.6584 104.003 94.6584C109.141 94.6584 109.141 89.9567 114.444 89.9567C119.582 89.9567 119.582 94.6584 124.886 94.6584C130.023 94.6584 130.023 89.9567 135.161 89.9567C134.498 84.4374 130.852 80.1445 126.377 80.1445H19.3112C14.8363 80.1445 11.19 84.4374 10.5271 89.9567C15.4992 89.9567 15.6649 94.6584 20.8028 94.6584C25.7749 94.6584 25.7749 89.9567 31.0785 89.9567Z" fill="white"/>
<path d="M134.664 131.862H10.3613V91.387C10.3613 85.05 14.5048 79.9395 19.6426 79.9395H125.549C130.686 79.9395 134.83 85.05 134.83 91.387V131.862H134.664Z" stroke="white" stroke-miterlimit="10" stroke-linecap="round" stroke-linejoin="round"/>
<path d="M10.3613 115.917C15.4992 115.917 15.4992 120.619 20.8028 120.619C25.9406 120.619 25.9406 115.917 31.2442 115.917C36.382 115.917 36.382 120.619 41.5199 120.619C46.6577 120.619 46.6577 115.917 51.9613 115.917C57.0991 115.917 57.0991 120.619 62.4027 120.619C67.5406 120.619 67.5406 115.917 72.8442 115.917C78.1477 115.917 77.982 120.619 83.2856 120.619C88.4234 120.619 88.4234 115.917 93.727 115.917C98.8649 115.917 98.8649 120.619 104.168 120.619C109.306 120.619 109.306 115.917 114.61 115.917C119.748 115.917 119.748 120.619 125.051 120.619C130.189 120.619 130.189 115.917 135.493 115.917" stroke="white" stroke-miterlimit="10" stroke-linecap="round" stroke-linejoin="round"/>
<path d="M100.19 31.6963H44.6683C39.8619 31.6963 36.05 36.6024 35.7185 42.5306C37.2101 43.7571 38.3703 45.1881 41.1878 45.1881C46.3257 45.1881 46.3257 40.4864 51.6293 40.4864C56.7671 40.4864 56.7671 45.1881 62.0707 45.1881C67.2085 45.1881 67.2085 40.4864 72.5121 40.4864C77.65 40.4864 77.65 45.1881 82.9535 45.1881C88.0914 45.1881 88.0914 40.4864 93.395 40.4864C98.5328 40.4864 98.5328 45.1881 103.836 45.1881C106.654 45.1881 107.98 43.7571 109.471 42.5306C108.809 36.398 104.997 31.6963 100.19 31.6963Z" fill="white"/>
<path d="M109.14 80.1437H35.7188V42.1214C35.7188 35.7843 39.8622 30.6738 45 30.6738H100.025C105.163 30.6738 109.306 35.7843 109.306 42.1214V80.1437H109.14Z" stroke="white" stroke-miterlimit="10" stroke-linecap="round" stroke-linejoin="round"/>
<path d="M35.7185 63.79C40.3591 63.79 40.3591 68.4917 44.834 68.4917C49.3089 68.4917 49.4747 63.79 53.9496 63.79C58.5902 63.79 58.5902 68.4917 63.0651 68.4917C67.7057 68.4917 67.7057 63.79 72.1806 63.79C76.8213 63.79 76.8213 68.4917 81.2962 68.4917C85.9368 68.4917 85.9368 63.79 90.4117 63.79C95.0523 63.79 95.0523 68.4917 99.5272 68.4917C104.168 68.4917 104.168 63.79 108.643 63.79" stroke="white" stroke-miterlimit="10" stroke-linecap="round" stroke-linejoin="round"/>
<path d="M81.4707 6.14805C81.4707 3.39017 79.4035 1 76.6472 1C74.9246 1 73.2019 2.10315 72.5128 3.57402C71.6515 1.91929 70.1011 1 68.3784 1C65.7944 1 63.5549 3.20631 63.5549 6.14805C63.5549 6.33191 63.5549 6.51577 63.5549 6.69963C63.5549 6.69963 63.3827 10.9284 72.3406 18.8343C72.3406 18.8343 72.5128 19.0182 72.8574 18.8343C78.7144 13.5024 80.6094 10.0091 81.1262 8.1705C81.2984 7.43506 81.4707 6.69963 81.4707 6.14805Z" fill="#FEFFF9" stroke="white" stroke-miterlimit="10" stroke-linecap="round" stroke-linejoin="round"/>
<path d="M15.6641 127.364V98.1318" stroke="white" stroke-miterlimit="10" stroke-linecap="round" stroke-linejoin="round"/>
<path d="M40.8564 75.0325V53.5684" stroke="white" stroke-miterlimit="10" stroke-linecap="round" stroke-linejoin="round"/>
</svg>
