<svg width="173" height="208" viewBox="0 0 173 208" fill="none" xmlns="http://www.w3.org/2000/svg">
<path d="M45.9126 128.75C45.8433 128.495 45.7088 128.263 45.5226 128.077C45.3363 127.89 45.1047 127.756 44.8506 127.686C38.4099 126.532 31.9919 125.242 25.6191 123.771C25.3495 123.703 25.0662 123.708 24.7995 123.788C24.5329 123.868 24.2928 124.018 24.105 124.224C23.5175 123.998 22.7717 124.224 22.8169 125.039C23.0429 128.931 22.8168 136.013 26.4326 138.48C28.6918 139.634 31.1288 140.399 33.6416 140.743C37.3704 141.693 41.1217 142.53 44.9409 143.322C45.1876 143.388 45.446 143.396 45.6964 143.346C45.9467 143.296 46.1823 143.19 46.3852 143.035C46.588 142.88 46.7527 142.68 46.8667 142.452C46.9807 142.223 47.0408 141.971 47.0426 141.716C47.0064 137.371 46.6286 133.035 45.9126 128.75Z" fill="white"/>
<path d="M80.0594 112.933C79.9547 112.586 79.7432 112.281 79.455 112.061C79.1669 111.842 78.8168 111.719 78.4549 111.711C68.8459 112.043 59.2258 111.604 49.6869 110.398C49.5828 110.374 49.4745 110.374 49.3705 110.398C49.3495 110.185 49.2553 109.985 49.104 109.834C48.9527 109.682 48.7536 109.587 48.5405 109.566C48.3275 109.545 48.1137 109.598 47.9354 109.717C47.7571 109.835 47.6254 110.012 47.5626 110.217C46.4115 115.34 45.8653 120.58 45.9354 125.831C45.9413 126.291 46.1265 126.731 46.4516 127.056C46.7766 127.382 47.2159 127.567 47.6756 127.573C52.7377 127.369 57.7997 127.188 62.8844 127.143C66.2518 127.049 69.6215 127.216 72.9634 127.641C74.5456 128.067 76.1874 128.228 77.8221 128.116C82.9067 126.668 80.5792 116.734 80.0594 112.933Z" fill="white"/>
<path d="M104.15 128.591C104.15 127.822 103.449 126.872 102.545 126.985C96.5538 127.787 90.5086 128.113 84.4661 127.958C84.1197 127.935 83.777 128.04 83.5023 128.252C83.2277 128.465 83.04 128.77 82.9746 129.112C82.8718 129.026 82.7508 128.965 82.621 128.934C82.4911 128.902 82.3557 128.9 82.2251 128.928C82.0945 128.957 81.972 129.015 81.8669 129.097C81.7618 129.18 81.6769 129.286 81.6186 129.406C79.3587 134.316 80.8955 141.15 81.9124 146.264C82.0205 146.642 82.2489 146.975 82.5629 147.212C82.8769 147.449 83.2594 147.577 83.6525 147.576C90.2061 147.418 96.7598 147.373 103.336 146.92C103.796 146.914 104.235 146.729 104.56 146.403C104.885 146.078 105.07 145.638 105.076 145.178C104.669 139.657 104.421 134.135 104.15 128.591Z" fill="white"/>
<path d="M125.053 144.182C118.771 145.155 112.421 145.788 106.093 146.309C105.746 146.323 105.413 146.45 105.144 146.67C104.875 146.891 104.684 147.193 104.602 147.531C104.488 147.623 104.408 147.75 104.375 147.893C103.818 151.265 103.553 154.68 103.585 158.098C103.602 158.535 103.784 158.948 104.095 159.255C104.405 159.562 104.821 159.739 105.257 159.75L114.296 158.867C117.104 158.843 119.904 158.556 122.658 158.007C126.658 156.786 126.364 149.522 127.019 146.128C127.081 145.857 127.072 145.576 126.995 145.31C126.917 145.044 126.774 144.802 126.577 144.607C126.38 144.412 126.137 144.271 125.87 144.197C125.603 144.122 125.322 144.117 125.053 144.182Z" fill="white"/>
<path d="M129.302 106.732C129.189 105.872 128.104 105.465 127.358 105.623C120.059 107.321 112.692 108.656 105.279 109.696C105.047 109.722 104.826 109.806 104.635 109.941C104.445 110.076 104.291 110.257 104.19 110.467C104.088 110.678 104.042 110.91 104.054 111.143C104.067 111.377 104.138 111.603 104.262 111.801C104.055 115.753 104.222 119.715 104.76 123.635C104.769 123.89 104.835 124.14 104.953 124.366C105.071 124.593 105.237 124.79 105.441 124.944C105.644 125.098 105.879 125.204 106.129 125.256C106.378 125.307 106.636 125.303 106.884 125.242C110.502 124.308 114.179 123.62 117.889 123.183C121.098 122.73 126.273 122.685 129.03 120.92C130.364 119.992 130.386 119.517 130.454 117.911C130.403 114.158 130.017 110.417 129.302 106.732Z" fill="white"/>
<path d="M146.002 91.9564C145.392 90.4855 144.804 87.8154 143.268 87.0687C141.731 86.3219 138.748 87.476 137.279 87.7701C133.927 88.1944 130.616 88.8984 127.381 89.8746C127.199 89.9441 127.033 90.0498 126.893 90.1853C126.752 90.3207 126.641 90.4831 126.565 90.6627C126.489 90.8424 126.45 91.0355 126.45 91.2306C126.451 91.4257 126.491 91.6186 126.567 91.798C126.501 92.0193 126.501 92.2554 126.567 92.4768C127.936 96.1492 128.98 99.9352 129.686 103.791C129.743 103.998 129.841 104.191 129.973 104.36C130.105 104.529 130.27 104.67 130.457 104.775C130.644 104.88 130.849 104.947 131.062 104.973C131.275 104.998 131.491 104.981 131.697 104.922C134.547 103.797 137.45 102.815 140.398 101.981C142.812 101.515 145.179 100.834 147.471 99.9441C147.72 99.8054 147.928 99.6018 148.071 99.3548C148.214 99.1079 148.288 98.8267 148.285 98.5411C147.898 96.2336 147.126 94.0076 146.002 91.9564Z" fill="white"/>
<path d="M139.268 154.296C134.951 155.666 130.506 156.591 126.002 157.057C125.701 157.095 125.414 157.209 125.169 157.389C124.925 157.569 124.729 157.808 124.603 158.085C124.476 158.361 124.422 158.665 124.445 158.969C124.469 159.272 124.569 159.564 124.737 159.818C124.084 161.469 123.518 163.153 123.042 164.864C122.102 166.944 121.579 169.189 121.505 171.471C121.512 171.76 121.592 172.042 121.74 172.29C121.887 172.538 122.096 172.744 122.346 172.887C122.596 173.03 122.879 173.107 123.167 173.108C123.455 173.11 123.739 173.037 123.991 172.897C130.771 168.959 135.9 163.031 140.895 157.057C141.889 155.903 140.985 153.753 139.268 154.296Z" fill="white"/>
<path d="M102.364 96.7986C102.048 95.7351 101.867 95.192 100.805 94.7168C98.8614 93.8796 94.6128 94.7168 92.5111 94.7168C88.9179 94.7168 85.3473 95.0336 81.7768 95.3731C79.7203 95.5541 79.6525 98.6315 81.5508 98.6994C80.6469 102.094 79.4944 108.316 82.0254 109.81C83.8559 110.896 88.0593 109.651 90.0705 109.47L101.37 108.565C101.809 108.559 102.229 108.38 102.538 108.067C102.846 107.754 103.02 107.331 103.02 106.891C103.224 103.513 103.004 100.122 102.364 96.7986Z" fill="white"/>
<path d="M87.1552 184.618C122.988 184.618 152.036 155.532 152.036 119.653C152.036 83.7735 122.988 54.6875 87.1552 54.6875C51.3226 54.6875 22.2747 83.7735 22.2747 119.653C22.2747 155.532 51.3226 184.618 87.1552 184.618Z" stroke="#F1EFED" stroke-width="1.1" stroke-linecap="round" stroke-linejoin="round"/>
<path d="M87.7433 1.2627C87.7433 18.8221 87.683 36.3816 87.5625 53.941" stroke="#F1EFED" stroke-width="1.1" stroke-linecap="round" stroke-linejoin="round"/>
<path d="M44.1055 72.5635C47.9621 74.3558 52.1483 75.3266 56.3991 75.4147C81.4384 77.6775 107.382 79.7367 130.975 71.3643" stroke="#F1EFED" stroke-width="1.1" stroke-linecap="round" stroke-linejoin="round"/>
<path d="M31.4043 89.1277C45.4793 93.2049 60.0122 95.4857 74.6581 95.9161C97.5025 96.168 120.253 92.9561 142.138 86.3896" stroke="#F1EFED" stroke-width="1.1" stroke-linecap="round" stroke-linejoin="round"/>
<path d="M24.1279 105.284C65.4882 114.653 108.61 112.636 148.917 99.4463" stroke="#F1EFED" stroke-width="1.1" stroke-linecap="round" stroke-linejoin="round"/>
<path d="M23.2239 123.319C65.0765 133.547 109.392 127.46 150.703 115.218" stroke="#F1EFED" stroke-width="1.1" stroke-linecap="round" stroke-linejoin="round"/>
<path d="M24.8057 138.186C42.7106 144.537 61.5842 147.715 80.579 147.576C99.5635 147.443 118.488 145.427 137.076 141.557C140.671 140.941 144.209 140.025 147.652 138.819" stroke="#F1EFED" stroke-width="1.1" stroke-linecap="round" stroke-linejoin="round"/>
<path d="M32.3535 154.636C42.1161 159.162 53.0539 160.587 63.7883 161.266C90.2648 163.288 116.888 160.482 142.364 152.984" stroke="#F1EFED" stroke-width="1.1" stroke-linecap="round" stroke-linejoin="round"/>
<path d="M46.6587 169.525C54.3292 172.289 62.255 174.283 70.3194 175.477C74.8236 175.937 79.3528 176.103 83.8786 175.974C97.7516 175.786 111.591 174.554 125.279 172.286" stroke="#F1EFED" stroke-width="1.1" stroke-linecap="round" stroke-linejoin="round"/>
<path d="M73.9352 56.9961C61.7578 68.859 53.1458 83.9027 49.0767 100.42C45.0642 116.93 44.8402 134.135 48.4214 150.745C50.5456 160.905 54.0709 171.11 61.0087 178.781" stroke="#F1EFED" stroke-width="1.1" stroke-linecap="round" stroke-linejoin="round"/>
<path d="M83.901 55.457C79.9203 98.416 79.6783 141.64 83.1778 184.641" stroke="#F1EFED" stroke-width="1.1" stroke-linecap="round" stroke-linejoin="round"/>
<path d="M91.4043 55.0498C93.2403 58.8071 94.6648 62.7522 95.6528 66.8164C105.89 104.451 107.313 143.944 99.8111 182.22" stroke="#F1EFED" stroke-width="1.1" stroke-linecap="round" stroke-linejoin="round"/>
<path d="M102.183 56.0225C117.731 67.7212 126.748 86.7062 129.302 106.008C131.855 125.31 128.579 144.974 122.997 163.665C121.812 167.849 120.401 171.966 118.771 175.997" stroke="#F1EFED" stroke-width="1.1" stroke-linecap="round" stroke-linejoin="round"/>
<path d="M117.663 46.8579C120.217 43.5089 122.906 40.2504 125.754 37.1504" stroke="#F1EFED" stroke-width="1.1" stroke-linecap="round" stroke-linejoin="round"/>
<path d="M134.748 60.4347C138.303 57.6518 142.082 55.1693 146.047 53.0127" stroke="#F1EFED" stroke-width="1.1" stroke-linecap="round" stroke-linejoin="round"/>
<path d="M45.8676 50.3882C43.3562 48.1724 41.226 45.5579 39.5625 42.6494" stroke="#F1EFED" stroke-width="1.1" stroke-linecap="round" stroke-linejoin="round"/>
<path d="M28.9869 67.0432C25.7327 64.4334 22.4409 61.8689 19.1113 59.3496" stroke="#F1EFED" stroke-width="1.1" stroke-linecap="round" stroke-linejoin="round"/>
<path d="M14.2751 109.176L1.48438 108.339" stroke="#F1EFED" stroke-width="1.1" stroke-linecap="round" stroke-linejoin="round"/>
<path d="M24.0145 165.792C20.7497 169.739 16.8555 173.119 12.4893 175.794" stroke="#F1EFED" stroke-width="1.1" stroke-linecap="round" stroke-linejoin="round"/>
<path d="M50.2517 190.071C47.2385 194.325 44.3232 198.678 41.5059 203.128" stroke="#F1EFED" stroke-width="1.1" stroke-linecap="round" stroke-linejoin="round"/>
<path d="M90.6806 197.652C90.4998 200.911 90.3191 204.169 90.1609 207.428" stroke="#F1EFED" stroke-width="1.1" stroke-linecap="round" stroke-linejoin="round"/>
<path d="M137.166 182.424C140.646 185.441 143.998 188.526 147.222 191.679" stroke="#F1EFED" stroke-width="1.1" stroke-linecap="round" stroke-linejoin="round"/>
<path d="M157.256 151.332C161.158 153.127 165.098 154.779 169.075 156.288" stroke="#F1EFED" stroke-width="1.1" stroke-linecap="round" stroke-linejoin="round"/>
<path d="M159.358 100.487C163.867 98.8437 168.211 96.7753 172.329 94.3096" stroke="#F1EFED" stroke-width="1.1" stroke-linecap="round" stroke-linejoin="round"/>
</svg>
